<?xml version="1.0" encoding="UTF-8"?>
<svg id="Capa_2" data-name="Capa 2" xmlns="http://www.w3.org/2000/svg" xmlns:xlink="http://www.w3.org/1999/xlink" viewBox="0 0 661.85 413.6">
  <defs>
    <style>
      .cls-1 {
        fill: none;
      }

      .cls-2 {
        fill: #333331;
      }

      .cls-3 {
        fill: #e9e8dd;
      }

      .cls-4 {
        fill: #ffdf43;
      }

      .cls-5 {
        clip-path: url(#clippath);
      }
    </style>
    <clipPath id="clippath">
      <rect class="cls-1" width="661.85" height="413.6"/>
    </clipPath>
  </defs>
  <g id="Marcas_PNG" data-name="Marcas PNG">
    <g class="cls-5">
      <g>
        <path class="cls-3" d="M93.79,298.34l-.67,24.7c-.01.46-.39.83-.85.83h-5.62c-.48,0-.87-.4-.85-.88l1.06-32.96c.01-.46.39-.82.85-.82h9.72c.35,0,.66.21.79.53l9.17,22.62,8.92-22.61c.13-.32.44-.54.79-.54h9.68c.46,0,.84.36.85.82l1.06,32.96c.02.48-.37.88-.85.88h-6.31c-.46,0-.84-.37-.85-.83l-.67-24.83-9.13,22.9c-.13.32-.44.54-.79.54h-6.11c-.34,0-.65-.21-.79-.53l-9.41-22.77Z"/>
        <path class="cls-3" d="M146.63,289.21h8.92c.36,0,.69.23.81.58l1.94,5.7,10.04,27.24c.2.56-.21,1.14-.8,1.14h-6.82c-.36,0-.68-.23-.8-.57l-2.39-6.81c-.12-.34-.44-.57-.8-.57h-12.04c-.36,0-.68.23-.8.57l-2.39,6.81c-.12.34-.44.57-.8.57h-6.26c-.59,0-1-.59-.8-1.15l12.22-32.96c.12-.33.44-.55.8-.55ZM155.09,309.63l-4.07-11.47c-.22-.63-.58-.63-.8,0l-4.01,11.47c-.11.31.07.57.4.57h8.07c.33,0,.51-.26.4-.57Z"/>
        <path class="cls-3" d="M211.55,289.21h6.53c.47,0,.85.38.85.85v32.96c0,.47-.38.85-.85.85h-6.53c-.47,0-.85-.38-.85-.85v-32.96c0-.47.38-.85.85-.85Z"/>
        <path class="cls-3" d="M237.65,289.21h8.92c.36,0,.69.23.81.58l1.94,5.7,10.04,27.24c.2.56-.21,1.14-.8,1.14h-6.82c-.36,0-.68-.23-.8-.57l-2.39-6.81c-.12-.34-.44-.57-.8-.57h-12.04c-.36,0-.68.23-.8.57l-2.39,6.81c-.12.34-.44.57-.8.57h-6.26c-.59,0-1-.59-.8-1.15l12.22-32.96c.12-.33.44-.55.8-.55ZM246.11,309.63l-4.07-11.47c-.22-.63-.58-.63-.8,0l-4.01,11.47c-.11.31.07.57.4.57h8.07c.33,0,.51-.26.4-.57Z"/>
        <path class="cls-3" d="M272.58,303.69v19.32c0,.47-.38.85-.85.85h-5.9c-.47,0-.85-.38-.85-.85v-32.96c0-.47.38-.85.85-.85h5.87c.25,0,.48.11.64.29l16.45,18.91c.52.59,1.49.23,1.49-.56v-17.8c0-.47.38-.85.85-.85h5.97c.47,0,.85.38.85.85v32.96c0,.47-.38.85-.85.85h-4.69c-.25,0-.48-.11-.64-.29l-17.71-20.44c-.52-.59-1.49-.23-1.49.56Z"/>
        <path class="cls-3" d="M305.23,307.34c0-10.39,6.49-19.25,18.9-19.25s17.78,7.81,17.78,17.71c0,10.53-6.69,19.18-18.9,19.18s-17.78-7.88-17.78-17.64ZM333.06,306.36c0-6.49-3.07-12.48-9.69-12.48s-9.21,5.93-9.21,12.76,3.14,12.55,9.62,12.55c6,0,9.27-5.44,9.27-12.83Z"/>
        <path class="cls-3" d="M355.68,307.34c0-10.39,6.49-19.25,18.9-19.25s17.78,7.81,17.78,17.71c0,10.53-6.69,19.18-18.9,19.18s-17.78-7.88-17.78-17.64ZM383.5,306.36c0-6.49-3.07-12.48-9.69-12.48s-9.21,5.93-9.21,12.76,3.14,12.55,9.62,12.55c6,0,9.27-5.44,9.27-12.83Z"/>
        <path class="cls-3" d="M410.93,310.75l-1.65-.06c-.24,0-.44.18-.44.42v11.89c0,.47-.38.85-.85.85h-6.53c-.47,0-.85-.38-.85-.85v-33.09c0-.44.33-.82.78-.85,3.22-.25,6.78-.43,10.59-.43,9.55,0,15.27,2.79,15.27,9.97,0,4.11-2.41,7.64-6.3,9.89-.22.13-.28.39-.14.6l9.04,13.43c.38.56-.02,1.33-.71,1.33h-7.28c-.29,0-.56-.15-.72-.4l-6.65-10.55c-1.26-1.95-1.74-2.09-3.56-2.16ZM414.9,305.25c2.65-1.33,3.97-3.56,3.97-6.21,0-3.42-3.28-4.88-7.46-4.88-.71,0-1.47.05-2.19.11-.22.02-.39.21-.39.42v10.19c0,.24.19.43.43.43l5.64-.06Z"/>
        <path class="cls-3" d="M444.09,295.55h-10.99c-.47,0-.85-.38-.85-.85v-4.64c0-.47.38-.85.85-.85h31.84c.47,0,.85.38.85.85v4.64c0,.47-.38.85-.85.85h-10.92c-.47,0-.85.38-.85.85v26.61c0,.47-.38.85-.85.85h-6.53c-.47,0-.85-.38-.85-.85v-26.61c0-.47-.38-.85-.85-.85Z"/>
        <path class="cls-3" d="M472.44,289.21h24.17c.47,0,.85.38.85.85v4.37c0,.47-.38.85-.85.85h-15.94c-.47,0-.85.38-.85.85v6.25c0,.47.38.85.85.85h11.06c.47,0,.85.38.85.85v4.3c0,.47-.38.85-.85.85h-11.06c-.47,0-.85.38-.85.85v6.88c0,.47.38.85.85.85h16.08c.47,0,.85.38.85.85v4.37c0,.47-.38.85-.85.85h-24.31c-.47,0-.85-.38-.85-.85v-32.96c0-.47.38-.85.85-.85Z"/>
        <path class="cls-3" d="M501.83,307.34c0-12.34,8.51-19.25,19.87-19.25,4.67,0,8.83,1.02,12.18,3.74.27.22.37.59.26.93l-1.47,4.52c-.16.49-.72.73-1.18.5l-1.84-.9c-3.42-1.6-5.86-2.37-8.23-2.37-7.39,0-10.81,5.09-10.81,12.13,0,8.3,4.81,12.13,11.99,12.13,1.32,0,2.69-.1,4.11-.35.4-.07.7-.43.7-.84v-2.22c0-2.79-.21-4.04-.49-5.58l-.25-1.24c-.09-.47.21-.92.68-1l6.54-1.17h1.26v15.7c0,.37-.23.7-.58.81-3.72,1.22-8.17,2.04-12.74,2.04-11.37,0-20.01-5.3-20.01-17.57Z"/>
        <path class="cls-3" d="M554.3,289.21h8.92c.36,0,.69.23.81.58l1.94,5.7,10.04,27.24c.2.56-.21,1.14-.8,1.14h-6.82c-.36,0-.68-.23-.8-.57l-2.39-6.81c-.12-.34-.44-.57-.8-.57h-12.04c-.36,0-.68.23-.8.57l-2.39,6.81c-.12.34-.44.57-.8.57h-6.26c-.59,0-1-.59-.8-1.15l12.22-32.96c.12-.33.44-.55.8-.55ZM562.76,309.63l-4.07-11.47c-.22-.63-.58-.63-.8,0l-4.01,11.47c-.11.31.07.57.4.57h8.07c.33,0,.51-.26.4-.57Z"/>
        <path class="cls-3" d="M184.96,310.75l-1.65-.06c-.24,0-.44.18-.44.42v11.89c0,.47-.38.85-.85.85h-6.53c-.47,0-.85-.38-.85-.85v-33.09c0-.44.33-.82.78-.85,3.22-.25,6.78-.43,10.59-.43,9.55,0,15.27,2.79,15.27,9.97,0,4.11-2.41,7.64-6.3,9.89-.22.13-.28.39-.14.6l9.04,13.43c.38.56-.02,1.33-.71,1.33h-7.28c-.29,0-.56-.15-.72-.4l-6.65-10.55c-1.26-1.95-1.74-2.09-3.56-2.16ZM188.94,305.25c2.65-1.33,3.97-3.56,3.97-6.21,0-3.42-3.28-4.88-7.46-4.88-.71,0-1.47.05-2.19.11-.22.02-.39.21-.39.42v10.19c0,.24.19.43.43.43l5.64-.06Z"/>
      </g>
      <g>
        <g>
          <path class="cls-4" d="M338.82,353.33c-.02-.33-.06-.63-.15-.92-.09-.3-.22-.59-.37-.86-.16-.27-.36-.51-.57-.74-.21-.22-.45-.42-.7-.61-.24-.18-.5-.37-.78-.52-.17-.1-.35-.19-.53-.27l.18.87c.02.09.03.18.04.26l.02.18c.2.14.38.29.54.44.22.2.4.42.56.65.16.24.29.49.38.77.08.26.14.55.16.85-.01.31-.08.59-.16.86-.09.29-.22.55-.38.78-.06.08-.12.17-.18.25-.06.08-.13.17-.2.24-.06.06-.12.12-.18.18,0,0,0,0-.01,0,0-.02,0-.04-.01-.06-.02-.07-.03-.14-.04-.21-.02-.1-.04-.19-.05-.29-.02-.13-.05-.26-.07-.39-.06-.29-.14-.58-.2-.88-.06-.29-.09-.59-.15-.89-.06-.29-.14-.58-.2-.88-.06-.29-.12-.59-.18-.89-.02-.09-.03-.19-.04-.28-.02-.09-.03-.18-.04-.28-.02-.09-.03-.18-.04-.28h0s0-.04,0-.06c-.06-.29-.12-.59-.18-.89-.02-.1-.04-.19-.06-.28-.02-.09-.05-.18-.07-.26-.02-.08-.04-.17-.06-.26,0-.02-.01-.05-.02-.08-.06-.29-.12-.58-.18-.89-.06-.29-.12-.58-.18-.89,0-.16-.06-.31-.19-.43-.15-.15-.36-.23-.57-.23-.26,0-.49.12-.66.38-.07.14-.19.45-.33.75-.14.3-.3.59-.37.73,0,.01,0,.02-.02.03-.04.09-.08.16-.1.22-.04.09-.06.15-.09.22-.08,0-.16-.02-.24-.02-.08,0-.16-.01-.24-.02-.04,0-.07,0-.11,0-.31-.04-.62-.1-.93-.12-.32-.02-.63.02-.93.02s-.63-.03-.93-.02c-.32.02-.62.06-.93.09-.07,0-.14.02-.21.03l.03.07c.04.09.1.19.19.4l.25.53c.26-.03.52-.07.79-.08.28-.02.57-.03.85-.03s.58.02.87.03c.2,0,.4.02.6.03.08,0,.16.01.24.02h.02c.07,0,.14.02.22.03.21.03.43.07.64.1.12.02.24.04.36.06.08.02.15.03.23.04.08.01.16.03.23.05.02,0,.03,0,.04,0,.12.03.25.06.37.09.08.02.16.05.24.07.08.02.15.04.22.06,0,0,.02,0,.03.01.01.04.02.09.03.14,0,.04.02.08.02.12.02.09.04.18.06.27.04.14.07.28.1.43.05.27.09.55.14.83.05.29.09.58.14.87s.1.57.16.86c.05.29.08.58.14.87.05.29.15.57.2.85.05.27.08.54.12.8,0,.02,0,.04.01.07.01.06.02.11.03.17.01.08.02.16.04.24-.07.04-.14.08-.21.1-.07.04-.14.07-.21.1-.01,0-.02,0-.03.01-.26.12-.53.25-.81.34-.28.08-.57.12-.86.18-.29.06-.57.16-.85.2-.3.05-.59.05-.87.08-.31.03-.59.07-.87.09-.32.02-.61.04-.87.04-.29,0-.6-.02-.93-.04-.3-.02-.61-.08-.92-.12-.3-.03-.61-.05-.92-.1-.3-.06-.61-.12-.91-.2s-.6-.17-.89-.28c-.2-.08-.4-.18-.59-.27v.05c-.08.37-.16.81-.19,1.02v.05c.25.1.51.21.79.29.29.08.6.13.91.2.3.07.6.13.91.18.3.05.61.11.92.14.3.03.62.03.93.04.31.02.61.01.93.01,0,0,0-.01,0-.01.31,0,.62,0,.93,0,.31-.02.62-.01.93-.05.31-.03.62-.08.93-.13.31-.05.61-.12.91-.19.31-.07.61-.13.91-.22.24-.08.46-.19.68-.29.06-.03.12-.05.18-.08.01,0,.03-.01.04-.02.07-.03.14-.06.22-.09.21-.08.41-.16.6-.27.17-.09.33-.19.48-.3.07-.04.14-.09.2-.14.03-.02.06-.05.1-.07.04-.03.07-.05.1-.08.21-.17.4-.36.58-.55.22-.23.42-.47.57-.73.16-.26.27-.55.36-.86.09-.28.15-.59.17-.91,0-.04.04-.08.04-.16,0-.03-.02-.06-.02-.06ZM333.84,348.75c-.07-.02-.14-.04-.2-.05-.02,0-.04,0-.06-.01-.08-.02-.15-.04-.23-.05.03-.06.06-.12.11-.21.01-.03.02-.06.04-.09.02-.04.04-.08.05-.12.11-.28.06-.36.3-.65.04.24.1.5.15.75,0,.02.01.05.02.07.01.06.02.12.03.18.01.08.02.16.03.25-.08-.02-.16-.05-.24-.07Z"/>
          <path class="cls-4" d="M324.67,354.12c.06-.3.11-.59.17-.89,0-.01.05-.01.22-.91.04-.24.06-.55.14-.93.04-.26.08-.54.14-.87-.06.02-.12.04-.18.07-.3.11-.54.25-.81.41l-.17.1s-.02.08-.03.13q-.09.44-.18.89c-.09.44-.1.44-.18.88-.06.29-.13.58-.19.88-.06.29-.08.59-.14.89-.02.11-.05.22-.08.34-.02.08-.04.17-.06.25-.02.08-.04.16-.06.25-.06-.06-.13-.11-.19-.17-.03-.02-.06-.06-.09-.08-.03-.04-.06-.07-.09-.1-.18-.2-.33-.41-.44-.63-.14-.28-.21-.57-.25-.86-.04-.3-.02-.59.05-.89.08-.31.22-.61.4-.9.18-.27.39-.51.64-.75.15-.14.31-.27.48-.39.08-.06.17-.12.26-.18.02-.01.03-.02.05-.03.07-.04.14-.09.22-.13.21-.12.43-.24.67-.32.14-.07.31-.12.48-.18.08-.02.16-.05.25-.08.02,0,.05-.02.08-.02.06-.02.12-.04.18-.06.15-.05.31-.1.47-.14.06-.02.11-.03.17-.04,0,0,0,0,.01,0,.01,0,.02,0,.04,0,.07-.02.15-.03.23-.04.02.06.05.12.09.21.01.02.02.04.03.06.03.06.05.11.08.15.12.24.16.28.32.6q.18.38.36.77c.18.38.16.39.34.77.18.38.2.37.39.75.18.38.19.38.37.76.04.09.06.2.11.3.09.2.22.38.35.57.15.18.36.3.59.3s.49-.09.65-.28c.12-.17.22-.39.3-.58.04-.1.07-.22.12-.31.19-.38.18-.39.36-.77.18-.38.2-.38.38-.76.18-.38.18-.38.36-.77.18-.38.16-.39.34-.77.16-.33.2-.36.32-.62h0l-.22-.03-.24-.04-.15-.02c-.1-.02-.21-.03-.32-.05h-.07c-.1.23-.12.3-.28.63-.19.41-.22.4-.42.81-.19.41-.18.42-.38.82-.2.41-.21.4-.4.81-.2.41-.12.45-.38.82-.08-.16-.19-.4-.31-.65-.16-.33-.33-.67-.42-.85-.19-.4-.17-.4-.36-.79-.18-.4-.18-.4-.37-.79-.18-.38-.19-.4-.36-.75,0,0-.01-.02-.02-.03-.04-.08-.07-.14-.09-.19h0c-.04-.09-.07-.16-.1-.22-.04-.1-.09-.2-.18-.38-.15-.32-.18-.38-.29-.59-.02-.05-.06-.11-.09-.19,0,0,0-.02-.01-.02-.04-.09-.07-.16-.1-.22-.08-.18-.11-.26-.25-.55-.18-.39-.21-.38-.39-.78-.13-.36-.39-.6-.73-.6-.41,0-.75.33-.76.68-.07.45-.08.45-.17.89-.09.44-.12.43-.21.88,0,.02,0,.04-.01.06-.02.12-.04.2-.06.26-.02.1-.04.17-.07.27-.02.01-.05.02-.08.03-.06.02-.12.04-.18.08-.09.03-.17.07-.26.11-.14.06-.28.12-.41.19-.29.14-.55.31-.79.47-.27.19-.53.37-.73.58-.25.24-.46.52-.63.81-.18.3-.3.62-.39.96-.09.33-.12.67-.12,1.02s.02.7.1,1.03c.09.34.22.66.4.95.17.29.38.57.63.81.14.16.31.3.5.45.06.05.13.1.2.15,0,0,0,0,.01,0,.06.04.13.09.19.13-.02.08-.03.16-.05.24-.02.08-.03.16-.05.24,0,0,0,.01,0,.02-.06.29-.1.59-.16.89-.06.29-.13.58-.19.88-.04.17-.03.35.07.49.1.14.26.25.42.28.02,0,.04,0,.06,0h.06c.3,0,.54-.24.59-.54.06-.3.14-.59.18-.89.04-.2.08-.41.11-.61.02-.07.03-.14.04-.22,0-.02,0-.04.01-.06.01-.06.02-.11.03-.16.04-.24.09-.48.13-.72.03-.15.05-.3.08-.45.01-.08.03-.16.04-.24.01-.07.02-.14.04-.2,0-.01,0-.02,0-.04.05-.29.1-.57.15-.85.06-.3.07-.6.12-.89ZM325.92,347.56c.24.29.18.38.29.67.01.03.03.07.05.11.02.04.03.07.05.1.04.09.08.16.11.21-.06.01-.12.02-.18.04h-.06c-.09.03-.18.05-.28.07-.08.01-.16.03-.24.04.01-.08.02-.16.04-.24,0,0,0-.02,0-.02.01-.07.03-.14.04-.21.06-.29.12-.56.16-.77Z"/>
          <path class="cls-4" d="M337.06,358.33c-.06-.28-.14-.57-.21-.88,0-.03-.01-.06-.02-.09-.12.08-.24.16-.36.23-.23.13-.48.22-.7.31l-.04.02c.04.23.1.45.13.67.05.3.1.58.14.86.06.31.3.53.6.53.2,0,.37-.12.49-.26.12-.14.16-.32.12-.51-.06-.28-.1-.58-.17-.88Z"/>
        </g>
        <g>
          <path class="cls-4" d="M364.1,350.22l-.78.82c-.11.11-.29.12-.4,0-.37-.35-.89-.51-1.43-.51-.93,0-1.51.47-1.51,1.19,0,.63.52.97,1.44,1.25,1.48.46,2.95.93,2.95,2.83s-1.5,2.95-3.32,2.95c-1.2,0-2.2-.33-2.91-1.05-.11-.11-.1-.29.01-.39l.82-.79c.12-.11.3-.11.41.02.41.47,1.01.73,1.65.73.89,0,1.62-.52,1.62-1.27,0-.69-.47-1.06-1.66-1.42-1.66-.51-2.73-1.07-2.73-2.74s1.4-2.79,3.41-2.79c.93,0,1.77.26,2.4.74.14.11.16.3.04.43Z"/>
          <path class="cls-4" d="M371.22,349.45l3.74,8.68c.09.22-.02.4-.26.4h-1.26c-.1,0-.22-.08-.26-.18l-.72-1.76c-.04-.1-.16-.18-.26-.18h-3.62c-.11,0-.22.08-.26.18l-.69,1.76c-.04.1-.16.18-.26.18h-1.22c-.24,0-.35-.18-.26-.4l3.77-8.68c.04-.09.16-.17.26-.17h1.05c.1,0,.22.08.26.17ZM369.35,355h2.05c.23,0,.34-.17.27-.38l-1.01-2.68c-.14-.38-.38-.38-.53,0l-1.03,2.68c-.08.21.04.39.26.39Z"/>
          <path class="cls-4" d="M378.84,349.28c.08,0,.19.06.24.13l4.39,6.74h.03v-6.58c0-.16.13-.28.28-.28h1.08c.16,0,.28.13.28.28v8.68c0,.16-.13.28-.28.28h-1.65c-.08,0-.19-.06-.24-.13l-4.49-6.96h-.03v6.8c0,.16-.13.28-.28.28h-1.08c-.16,0-.28-.13-.28-.28v-8.68c0-.16.13-.28.28-.28h1.74Z"/>
          <path class="cls-4" d="M396.63,349.28c.16,0,.28.13.28.28v6.45c0,1.32-.85,2.74-2.78,2.74-1.39,0-2.3-.61-2.65-1.83-.04-.16.04-.32.21-.36l1.26-.3c.09.59.52,1,1.11,1,.84,0,1.2-.57,1.2-1.74v-5.97c0-.16.13-.28.28-.28h1.08Z"/>
          <path class="cls-4" d="M400.89,349.28c.16,0,.28.13.28.28v5.55c0,.85.48,2.08,2.08,2.08s2.08-1.23,2.08-2.08v-5.55c0-.16.13-.28.28-.28h1.08c.16,0,.28.13.28.28v5.63c0,1.81-1.28,3.56-3.72,3.56s-3.72-1.76-3.72-3.56v-5.63c0-.16.13-.28.28-.28h1.08Z"/>
          <path class="cls-4" d="M414.13,349.45l3.74,8.68c.09.22-.02.4-.26.4h-1.26c-.1,0-.22-.08-.26-.18l-.72-1.76c-.04-.1-.16-.18-.26-.18h-3.62c-.11,0-.22.08-.26.18l-.69,1.76c-.04.1-.16.18-.26.18h-1.22c-.24,0-.35-.18-.26-.4l3.77-8.68c.04-.09.16-.17.26-.17h1.05c.1,0,.22.08.26.17ZM412.27,355h2.05c.23,0,.34-.17.27-.38l-1.01-2.68c-.14-.38-.38-.38-.53,0l-1.03,2.68c-.08.21.04.39.26.39Z"/>
          <path class="cls-4" d="M421.76,349.28c.08,0,.19.06.24.13l4.39,6.74h.03v-6.58c0-.16.13-.28.28-.28h1.08c.16,0,.28.13.28.28v8.68c0,.16-.13.28-.28.28h-1.65c-.08,0-.19-.06-.24-.13l-4.49-6.96h-.03v6.8c0,.16-.13.28-.28.28h-1.08c-.16,0-.28-.13-.28-.28v-8.68c0-.16.13-.28.28-.28h1.74Z"/>
          <path class="cls-4" d="M432.27,357.46l-.8,2.55c-.06.18-.25.32-.44.32h-.45c-.33,0-.53-.26-.44-.59l.66-2.55c.05-.19.25-.35.44-.35h.6c.35,0,.54.27.44.61Z"/>
          <path class="cls-4" d="M442.46,349.22l3.74,8.68c.09.22-.02.4-.26.4h-1.26c-.1,0-.22-.08-.26-.18l-.72-1.76c-.04-.1-.16-.18-.26-.18h-3.62c-.11,0-.22.08-.26.18l-.69,1.76c-.04.1-.16.18-.26.18h-1.22c-.24,0-.35-.18-.26-.4l3.77-8.68c.04-.09.16-.17.26-.17h1.05c.1,0,.22.08.26.17ZM440.6,354.76h2.05c.23,0,.34-.17.27-.38l-1.01-2.68c-.14-.38-.38-.38-.53,0l-1.03,2.68c-.08.21.04.39.26.39Z"/>
          <path class="cls-4" d="M451.32,349.04c1.78,0,3.39.63,3.39,2.65,0,1.25-.68,2.13-1.76,2.43-.2.05-.28.24-.17.42l1.99,3.32c.14.24.03.43-.24.43h-1.32c-.09,0-.2-.07-.25-.15l-1.98-3.62c-.04-.08-.16-.15-.25-.15h-.75c-.16,0-.28.13-.28.28v3.35c0,.16-.13.28-.28.28h-1.08c-.16,0-.28-.13-.28-.28v-8.68c0-.16.13-.28.28-.28h2.98ZM451.06,352.96c.94,0,1.93-.13,1.93-1.28,0-1.06-.95-1.23-1.81-1.23h-1.19c-.16,0-.28.13-.28.28v1.94c0,.16.13.28.28.28h1.07Z"/>
          <path class="cls-4" d="M464.75,350.19l-.81.82c-.1.1-.27.1-.38.01-.61-.49-1.44-.73-2.22-.73-1.89,0-3.17,1.46-3.17,3.3s1.2,3.43,3.19,3.43c.64,0,1.38-.1,2-.4.09-.04.15-.16.15-.25v-1.72c0-.16-.13-.28-.28-.28h-1.33c-.16,0-.28-.13-.28-.28v-.92c0-.16.13-.28.28-.28h2.97c.16,0,.28.13.28.28v4.27c0,.1-.07.21-.16.26-1.18.59-2.42.83-3.65.83-2.87,0-4.9-1.96-4.9-4.82s1.98-4.9,4.9-4.9c1.17,0,2.42.23,3.38.95.15.11.16.3.04.43Z"/>
          <path class="cls-4" d="M469.7,357.35c0,.57-.48,1.02-1.04,1.02s-1.04-.43-1.04-.99.48-1.02,1.04-1.02,1.04.42,1.04.99Z"/>
        </g>
        <g>
          <path class="cls-4" d="M184.81,349.29c2.39,0,4.65,1.51,4.65,4.61,0,3.27-2.84,4.61-4.85,4.61h-3.2c-.16,0-.28-.13-.28-.28v-8.66c0-.16.13-.28.28-.28h3.39ZM184.07,357.04c1.97,0,3.68-.89,3.68-3.13s-1.45-3.13-3.45-3.13h-1.51v6.26h1.29Z"/>
          <path class="cls-4" d="M193.28,349.58v8.66c0,.16-.13.28-.28.28h-1.08c-.16,0-.28-.13-.28-.28v-8.66c0-.16.13-.28.28-.28h1.08c.16,0,.28.13.28.28Z"/>
          <path class="cls-4" d="M201.47,350.23l-.78.82c-.1.11-.28.13-.39.02-.37-.36-.9-.53-1.44-.53-.93,0-1.51.47-1.51,1.19,0,.63.52.96,1.43,1.25,1.47.46,2.95.93,2.95,2.83s-1.5,2.95-3.31,2.95c-1.19,0-2.19-.33-2.9-1.04-.11-.11-.1-.29.01-.4l.81-.78c.11-.11.3-.11.4,0,.41.47,1.01.74,1.65.74.89,0,1.62-.52,1.62-1.26,0-.69-.47-1.06-1.66-1.42-1.66-.51-2.72-1.07-2.72-2.74s1.39-2.79,3.4-2.79c.94,0,1.78.27,2.42.76.13.1.13.29.02.41Z"/>
          <path class="cls-4" d="M210.2,349.58v.92c0,.16-.13.28-.28.28h-3.9c-.16,0-.28.13-.28.28v1.7c0,.16.13.28.28.28h3.67c.16,0,.28.13.28.28v.92c0,.16-.13.28-.28.28h-3.67c-.16,0-.28.13-.28.28v1.94c0,.16.13.28.28.28h4.14c.16,0,.28.13.28.28v.92c0,.16-.13.28-.28.28h-5.78c-.16,0-.28-.13-.28-.28v-8.66c0-.16.13-.28.28-.28h5.55c.16,0,.28.13.28.28Z"/>
          <path class="cls-4" d="M214.72,349.29c.1,0,.19.05.24.13l4.39,6.73h.03v-6.57c0-.16.13-.28.28-.28h1.08c.16,0,.28.13.28.28v8.66c0,.16-.13.28-.28.28h-1.65c-.1,0-.19-.05-.24-.13l-4.48-6.95h-.03v6.79c0,.16-.13.28-.28.28h-1.08c-.16,0-.28-.13-.28-.28v-8.66c0-.16.13-.28.28-.28h1.74ZM218.91,346.9c.2,0,.33.16.28.35-.22.88-.69,1.3-1.39,1.3-.3,0-.64-.09-.98-.22-.36-.14-.72-.27-.9-.27-.23,0-.42.12-.54.4-.04.09-.16.16-.25.16h-.31c-.2,0-.33-.16-.28-.36.22-.84.65-1.3,1.38-1.3.34,0,.72.12,1.09.26.47.18.65.22.78.22.25,0,.43-.14.54-.38.04-.09.16-.16.25-.16h.32Z"/>
          <path class="cls-4" d="M228.08,358.76c-2.84,0-4.85-1.95-4.85-4.81,0-2.66,1.72-4.89,4.94-4.89,2.92,0,4.85,1.95,4.85,4.84s-2.1,4.86-4.94,4.86ZM228.12,357.27c1.99,0,3.18-1.55,3.18-3.43s-1.3-3.3-3.19-3.3-3.15,1.47-3.15,3.3,1.19,3.43,3.17,3.43Z"/>
          <path class="cls-4" d="M247.54,350.44l-.81.82c-.1.1-.27.1-.38.01-.61-.49-1.44-.73-2.21-.73-1.89,0-3.17,1.46-3.17,3.3s1.2,3.43,3.18,3.43c.64,0,1.37-.1,1.99-.4.09-.04.16-.16.16-.26v-1.72c0-.16-.13-.28-.28-.28h-1.32c-.16,0-.28-.13-.28-.28v-.92c0-.16.13-.28.28-.28h2.97c.16,0,.28.13.28.28v4.26c0,.1-.07.22-.16.26-1.18.59-2.41.83-3.65.83-2.87,0-4.89-1.95-4.89-4.81s1.98-4.89,4.89-4.89c1.18,0,2.43.23,3.38.96.14.1.14.3.02.42Z"/>
          <path class="cls-4" d="M253.79,349.29c1.77,0,3.39.63,3.39,2.65,0,1.25-.68,2.13-1.77,2.43-.19.05-.26.24-.16.41l1.99,3.31c.14.24.03.43-.24.43h-1.31c-.09,0-.2-.07-.25-.15l-1.98-3.62c-.04-.08-.16-.15-.25-.15h-.75c-.16,0-.28.13-.28.28v3.34c0,.16-.13.28-.28.28h-1.08c-.16,0-.28-.13-.28-.28v-8.66c0-.16.13-.28.28-.28h2.97ZM253.53,353.2c.94,0,1.93-.13,1.93-1.28,0-1.06-.95-1.23-1.81-1.23h-1.19c-.16,0-.28.13-.28.28v1.94c0,.16.13.28.28.28h1.07Z"/>
          <path class="cls-4" d="M263.87,349.46l3.73,8.66c.09.22-.02.4-.26.4h-1.26c-.1,0-.22-.08-.26-.18l-.72-1.76c-.04-.1-.16-.18-.26-.18h-3.62c-.11,0-.22.08-.26.18l-.69,1.75c-.04.1-.16.18-.26.18h-1.21c-.24,0-.35-.18-.26-.4l3.77-8.66c.04-.09.16-.17.26-.17h1.05c.1,0,.22.08.26.17ZM262.01,355h2.04c.23,0,.35-.17.27-.38l-1.01-2.68c-.14-.38-.38-.38-.53,0l-1.03,2.68c-.08.21.04.39.26.39ZM265,347.27l-1.28,1.31s-.14.09-.2.09h-.57c-.3,0-.4-.2-.23-.44l.9-1.31c.05-.07.15-.12.23-.12h.95c.37,0,.46.22.2.48Z"/>
          <path class="cls-4" d="M275.41,349.58v.92c0,.16-.13.28-.28.28h-3.75c-.16,0-.28.13-.28.28v1.86c0,.16.13.28.28.28h3.5c.16,0,.28.13.28.28v.92c0,.16-.13.28-.28.28h-3.5c-.16,0-.28.13-.28.28v3.27c0,.16-.13.28-.28.28h-1.08c-.16,0-.28-.13-.28-.28v-8.66c0-.16.13-.28.28-.28h5.39c.16,0,.28.13.28.28Z"/>
          <path class="cls-4" d="M279.19,349.58v8.66c0,.16-.13.28-.28.28h-1.08c-.16,0-.28-.13-.28-.28v-8.66c0-.16.13-.28.28-.28h1.08c.16,0,.28.13.28.28Z"/>
          <path class="cls-4" d="M289.21,350.71l-.82.6c-.11.08-.27.06-.37-.03-.49-.47-1.05-.74-1.77-.74-1.89,0-3.17,1.46-3.17,3.3s1.23,3.43,3.17,3.43c.78,0,1.41-.37,1.9-.92.1-.11.26-.13.38-.05l.9.64c.13.1.17.28.06.41-.8.96-2,1.4-3.26,1.4-2.84,0-4.87-1.94-4.87-4.81s1.93-4.89,4.87-4.89c1.21,0,2.18.39,3.01,1.22.13.13.1.32-.04.43Z"/>
          <path class="cls-4" d="M295.79,358.76c-2.84,0-4.85-1.95-4.85-4.81,0-2.66,1.72-4.89,4.94-4.89,2.92,0,4.85,1.95,4.85,4.84s-2.1,4.86-4.94,4.86ZM295.83,357.27c1.99,0,3.18-1.55,3.18-3.43s-1.3-3.3-3.19-3.3-3.15,1.47-3.15,3.3,1.19,3.43,3.17,3.43Z"/>
        </g>
      </g>
      <g>
        <path class="cls-3" d="M385.92,169.03c-3.31-13.16-8.56-25.83-15.56-37.47-3.49-5.8-7.4-11.33-11.7-16.56-3.17-3.85-6.44-7.29-6.77-7.63-1.41-1.48-2.65-2.71-3.6-3.64,4.07-3.44,9.09-5.04,14.6-4.82,1.18-7.29,1.01-15.41,0-24.33l-2.94-.04c-2.98-.04-5.96-.32-8.88-.94-12.3-2.6-23.67-8.44-33.14-16.95l-3.4-3.05-4.02,2.16c-6.14,3.31-11.94,7.35-17.21,12.01-5.05,4.46-9.59,9.45-13.51,14.84l-1.03,1.42-.13,1.32c-1.05,5.24-2.09,10.44-3.14,15.68-5.93,18.83-5.52,38.33.7,55.72-2.13,1.41-1.83,1.21-3.96,2.63-5.1-4.7-10.1-9.55-14.96-14.52-.63-.64-1.34-1.2-2.15-1.59-2.45-1.18-5.19-.99-7.35.34-7.59,4.65-13.04,12.29-14.94,20.97-.73,3.33.79,6.67,3.77,8.34,9.7,5.39,19.43,11.03,29.03,16.82-2.28.38-4.58.86-6.88,1.43l-.35.09c-3.51.88-5.74,4.32-5.11,7.88l.52,2.9c.64,3.61,3.62,6.48,7.28,6.64,1.02.05,2.03-.11,2.99-.45,6.82-2.46,13.33-3.71,19.35-3.71,2.32,0,4.59.19,6.75.56,3.32,2.13,6.57,4.26,9.68,6.32,5.38,3.55,10.9,7.3,16.46,11.17v.05l2.83,1.93c.68,3.28,1.7,6.99,3.23,10.96,3.12,8.07,7.69,17.5,15.47,21.99,6.83,3.94,15.53,4.94,23.15,3.03,8.25-2.07,15.77-7.44,20.6-15.49,4.89-8.15,6.9-17.64,7.75-27.01,1.49-16.49.63-32.92-3.42-49.01Z"/>
        <g>
          <path class="cls-2" d="M354.27,255.21c-6.49,0-12.43-2.35-17.01-6.24-3.42-5.26-6.42-10.67-9.01-16.2-1-2.16-1.95-4.32-2.82-6.52l2.56,2.12,31.78,26.26c-1.78.37-3.61.57-5.5.57Z"/>
          <path class="cls-2" d="M382.9,188.93c-.17-1.62-.37-3.25-.62-4.87-5.16-35.41-23.87-65.49-50.13-85.72,6.9-3.64,14.7-5.77,22.99-5.96.66-.01,1.19-.54,1.19-1.21v-1.37c-7.12-1.82-14.45-2.92-21.77-3.26-8.68-.42-17.38.21-25.93,1.89-.17.03-.36.06-.53.1-1.8,2.06-4.05,3.39-6.17,3.39-1.42,0-2.61-.59-3.47-1.69-1.32-1.72-1.63-4.51-.86-7.48,1.35-5.1,5.5-9.24,9.27-9.24,1.4,0,2.61.57,3.45,1.68.84,1.1,1.27,2.63,1.27,4.38,0,.82-.09,1.68-.29,2.56,0,0,0,0,0,0,7.79-1.26,15.66-1.7,23.52-1.34,7.22.34,14.45,1.39,21.5,3.09v-1.78c0-.6-.45-1.11-1.05-1.19-15.77-2.21-30.04-9.07-41.39-19.16-.18-.16-.45-.2-.67-.08-5.63,3.07-10.87,6.75-15.63,10.96-4.67,4.12-8.89,8.75-12.56,13.79-.6,5.88-1.79,11.58-3.52,17.04-8.23,26.03-3.02,54.47,14.83,75.15h0c-2.26,1.43-4.56,2.79-6.93,4.08,0,0,.02.02.03.02-.19-.15-.39-.3-.57-.45-14.23-11.41-26.42-22.81-36.35-32.97-.35-.36-.91-.44-1.34-.18-6.04,3.68-10.47,9.74-12.02,16.86-.11.5.13,1,.57,1.25,13.48,7.49,27.45,15.69,41.8,24.65,1.52.95,3.04,1.91,4.57,2.87.37.23.17.81-.26.76-2.84-.34-5.98-.48-9.35-.37-2.48.09-5.09.31-7.8.69-2.03.29-6.01,1.13-7.96,1.55-.63.14-1.04.75-.93,1.38l.43,2.42c.13.74.9,1.18,1.61.92,10.65-3.85,21.19-5.17,30.76-3.19,3.58,2.29,7.19,4.64,10.81,7.05,6.59,4.35,13.05,8.76,19.37,13.2h0c1.95,1.35,3.87,2.71,5.79,4.07,13.65,9.69,26.55,19.4,38.36,28.68,5.94-3.28,10.48-8.81,12.47-15.44-13.7-5.87-29.43-13.53-46.11-23.44-1.68-.99-3.37-2.04-5.07-3.08.37-1.23.73-2.47,1.04-3.72,9.5,5.63,19.77,10.1,30.6,13.22,1.28.37,2.14-1.28,1.1-2.12-19.78-15.95-34.84-37.68-42.97-61.78-.61-1.82.07-3.83,1.68-4.89l.03-.02v-.02c5.57,16.34,14.4,31.53,25.79,44.44,8.49,9.62,18.39,17.99,29.39,24.6,2.35,1.42,4.74,2.75,7.19,4,.33-2.13.62-4.28.83-6.43,1-9.27,1.02-18.75-.03-28.34ZM324.74,203.43c-.06-.04-.11-.07-.17-.11-.2,1.33-.43,2.64-.67,3.94-1.75-1.1-3.49-2.2-5.26-3.36h0c-2.99-1.96-6-4-9.02-6.1-5.86-4.08-11.46-8.23-16.79-12.39,2.24-1.03,4.46-2.12,6.65-3.26-.06-.06-.12-.13-.17-.19,7.53,8.17,16.07,15.4,25.43,21.47Z"/>
        </g>
        <path class="cls-4" d="M312.75,73.35c1.05,1.38,1.66,3.09,1.86,5.25,4.86-.63,9.86-.95,14.89-.95,1.13,0,2.3.02,3.5.05-7.03-3.13-13.57-7.24-19.48-12.23-.19-.16-.47-.19-.69-.06-2.79,1.61-5.5,3.41-8.11,5.36.72-.19,1.44-.29,2.15-.29,2.35,0,4.44,1.02,5.87,2.88Z"/>
      </g>
    </g>
  </g>
</svg>