<?xml version="1.0" encoding="UTF-8"?>
<svg id="Capa_2" data-name="Capa 2" xmlns="http://www.w3.org/2000/svg" xmlns:xlink="http://www.w3.org/1999/xlink" viewBox="0 0 295.21 286.63">
  <defs>
    <style>
      .cls-1 {
        fill: none;
      }

      .cls-2 {
        fill: #333331;
      }

      .cls-3 {
        fill: #e9e8dd;
      }

      .cls-4 {
        fill: #ffdf43;
      }

      .cls-5 {
        clip-path: url(#clippath);
      }
    </style>
    <clipPath id="clippath">
      <rect class="cls-1" width="295.21" height="286.63"/>
    </clipPath>
  </defs>
  <g id="Marcas_PNG" data-name="Marcas PNG">
    <g class="cls-5">
      <g>
        <path class="cls-3" d="M220.26,157.34c-3.64-14.44-9.39-28.34-17.07-41.1-3.83-6.36-8.12-12.44-12.83-18.17-3.48-4.23-7.07-8-7.42-8.37-1.55-1.62-2.91-2.97-3.96-3.99,4.46-3.77,9.97-5.53,16.02-5.28,1.3-8,1.1-16.91,0-26.7l-3.22-.04c-3.27-.04-6.54-.36-9.74-1.04-13.5-2.86-25.97-9.26-36.36-18.59l-3.73-3.35-4.41,2.38c-6.74,3.63-13.09,8.06-18.88,13.17-5.53,4.89-10.52,10.36-14.83,16.28l-1.13,1.55-.15,1.45c-1.15,5.75-2.29,11.46-3.44,17.21-6.5,20.66-6.05,42.05.77,61.14-2.33,1.55-2,1.33-4.34,2.88-5.6-5.16-11.08-10.48-16.41-15.93-.69-.71-1.47-1.31-2.36-1.74-2.69-1.3-5.7-1.09-8.07.37-8.33,5.1-14.31,13.48-16.39,23.01-.8,3.65.86,7.32,4.14,9.15,10.64,5.92,21.31,12.1,31.85,18.45-2.5.42-5.02.95-7.55,1.57l-.38.1c-3.86.96-6.31,4.74-5.61,8.65l.57,3.18c.7,3.96,3.97,7.1,7.99,7.29,1.12.05,2.23-.12,3.28-.5,7.48-2.7,14.62-4.07,21.23-4.07,2.55,0,5.03.21,7.4.62,3.65,2.34,7.22,4.67,10.63,6.94,5.89,3.89,11.95,8.01,18.05,12.25v.06l3.11,2.12c.75,3.6,1.86,7.67,3.54,12.02,3.42,8.86,8.44,19.2,16.98,24.13,7.48,4.32,17.04,5.42,25.39,3.32,9.05-2.27,17.3-8.16,22.6-16.99,5.37-8.95,7.57-19.36,8.5-29.64,1.63-18.1.7-36.12-3.75-53.78Z"/>
        <path class="cls-2" d="M216.94,179.18c-.19-1.78-.41-3.57-.67-5.34-5.66-38.86-26.19-71.85-55-94.05,7.57-3.98,16.13-6.33,25.23-6.53.73-.01,1.31-.6,1.31-1.33v-1.5c-7.82-2-15.85-3.21-23.89-3.59-9.52-.46-19.07.24-28.45,2.08-.19.03-.4.06-.58.11-1.98,2.26-4.45,3.73-6.77,3.73-1.55,0-2.86-.65-3.8-1.85-1.44-1.89-1.79-4.95-.94-8.21,1.48-5.59,6.03-10.13,10.16-10.13,1.54,0,2.86.63,3.79,1.84.93,1.21,1.39,2.89,1.39,4.81,0,.9-.09,1.84-.31,2.81t0,0c8.54-1.39,17.18-1.87,25.81-1.47,7.92.38,15.85,1.52,23.59,3.4v-1.96c0-.66-.49-1.22-1.16-1.3-17.3-2.42-32.95-9.95-45.41-21.03-.2-.18-.5-.21-.73-.08-6.18,3.37-11.93,7.41-17.15,12.02-5.12,4.53-9.76,9.6-13.78,15.14-.66,6.44-1.97,12.7-3.86,18.7-2.79,8.83-4.17,17.9-4.17,26.91,0,20.12,6.91,39.86,20.44,55.54-2.48,1.58-5.01,3.06-7.6,4.48-.2-.16-.41-.31-.6-.47-15.61-12.52-28.98-25.03-39.88-36.17-.39-.4-1-.48-1.47-.19-6.63,4.03-11.49,10.68-13.19,18.5-.12.54.14,1.09.63,1.36,14.78,8.22,30.11,17.21,45.86,27.05,1.67,1.04,3.34,2.09,5.02,3.15.41.25.19.89-.29.83-3.12-.38-6.56-.53-10.25-.41-2.72.1-5.59.34-8.56.77-2.23.31-6.59,1.23-8.73,1.69-.69.15-1.14.82-1.01,1.51l.47,2.66c.14.82.99,1.29,1.77,1.01,11.69-4.23,23.24-5.67,33.75-3.5,3.92,2.51,7.88,5.09,11.86,7.73,7.23,4.78,14.32,9.62,21.26,14.48h0c2.13,1.48,4.24,2.97,6.34,4.46,14.97,10.63,29.13,21.29,42.09,31.47,6.52-3.6,11.5-9.66,13.68-16.94-15.03-6.44-32.28-14.85-50.59-25.72-1.84-1.09-3.7-2.24-5.56-3.38.41-1.34.8-2.71,1.14-4.08,10.43,6.17,21.69,11.08,33.58,14.51,1.4.41,2.34-1.41,1.21-2.32-21.7-17.5-38.23-41.34-47.15-67.78-.67-2,.08-4.2,1.84-5.36h.03s0-.04,0-.04c6.1,17.93,15.79,34.59,28.29,48.76,9.31,10.56,20.17,19.73,32.23,26.99,2.58,1.55,5.2,3.02,7.89,4.38.36-2.34.67-4.7.91-7.05,1.1-10.17,1.11-20.56-.04-31.09ZM153.14,195.09c-.06-.04-.13-.08-.19-.12-.22,1.46-.47,2.9-.74,4.33-1.92-1.21-3.83-2.42-5.77-3.68v-.02c-3.28-2.14-6.58-4.37-9.9-6.68-6.43-4.47-12.57-9.03-18.42-13.6,2.46-1.13,4.89-2.32,7.29-3.58-.06-.07-.13-.14-.19-.21,8.26,8.97,17.63,16.89,27.9,23.55Z"/>
        <path class="cls-2" d="M191.57,251.27c-1.94.41-3.96.63-6.03.63-7.12,0-13.63-2.58-18.67-6.86-3.75-5.76-7.04-11.7-9.88-17.77-1.1-2.37-2.14-4.74-3.1-7.15l2.81,2.33,34.86,28.81Z"/>
        <path class="cls-4" d="M139.98,52.38c1.15,1.52,1.82,3.4,2.04,5.76,5.33-.69,10.82-1.04,16.34-1.04,1.24,0,2.52.02,3.84.05-7.72-3.44-14.89-7.94-21.37-13.42-.21-.18-.51-.21-.75-.07-3.06,1.77-6.04,3.74-8.89,5.88.79-.21,1.58-.31,2.36-.31,2.58,0,4.87,1.12,6.45,3.15Z"/>
      </g>
    </g>
  </g>
</svg>