<?xml version="1.0" encoding="UTF-8"?>
<svg id="Capa_2" data-name="Capa 2" xmlns="http://www.w3.org/2000/svg" viewBox="0 0 172.66 228.06">
  <defs>
    <style>
      .cls-1 {
        fill: #333331;
      }

      .cls-2 {
        fill: #e9e8dd;
      }

      .cls-3 {
        fill: #ffdf43;
      }
    </style>
  </defs>
  <g id="Capa_1-2" data-name="Capa 1">
    <g>
      <g>
        <path class="cls-1" d="M164.88,179.56c-.24,2.35-.55,4.71-.91,7.05-2.69-1.36-5.31-2.83-7.89-4.38-12.06-7.26-22.92-16.43-32.23-26.99-12.5-14.17-22.19-30.83-28.29-48.76v.02s-.04.02-.04.02c-1.75,1.16-2.51,3.37-1.84,5.36,8.92,26.44,25.45,50.27,47.15,67.78,1.13.91.19,2.73-1.21,2.33-11.89-3.43-23.15-8.33-33.58-14.51-.34,1.37-.73,2.74-1.14,4.08,1.86,1.14,3.72,2.29,5.56,3.38,18.31,10.87,35.56,19.28,50.59,25.72-2.18,7.28-7.16,13.34-13.68,16.94-12.96-10.18-27.12-20.84-42.09-31.47-2.11-1.49-4.21-2.98-6.34-4.45v-.02c-6.95-4.87-14.03-9.7-21.26-14.48-3.98-2.64-7.94-5.22-11.86-7.73-10.51-2.17-22.06-.73-33.75,3.5-.78.28-1.63-.19-1.77-1.01l-.47-2.66c-.13-.69.32-1.36,1.01-1.52,2.14-.46,6.5-1.39,8.73-1.69,2.97-.42,5.83-.67,8.56-.77,3.69-.13,7.13.03,10.25.41.48.06.7-.58.29-.83-1.68-1.06-3.35-2.11-5.02-3.15-15.75-9.83-31.08-18.83-45.86-27.05-.49-.27-.75-.83-.63-1.36,1.7-7.81,6.56-14.46,13.19-18.5.47-.29,1.08-.21,1.47.19,10.9,11.14,24.26,23.66,39.88,36.17.2.16.4.31.6.47,2.59-1.42,5.11-2.9,7.6-4.48-13.53-15.67-20.44-35.42-20.44-55.54,0-9.01,1.38-18.08,4.17-26.91,1.9-6,3.2-12.25,3.86-18.7,4.02-5.54,8.66-10.61,13.78-15.14,5.23-4.61,10.97-8.66,17.15-12.02.23-.13.52-.1.73.08,12.47,11.08,28.12,18.61,45.41,21.03.66.09,1.16.64,1.16,1.3v1.96c-7.73-1.88-15.67-3.02-23.59-3.4-8.62-.4-17.27.08-25.81,1.47t0,0c.22-.98.31-1.91.31-2.81,0-1.91-.47-3.6-1.39-4.81-.93-1.21-2.25-1.84-3.79-1.84-4.13,0-8.69,4.54-10.16,10.13-.85,3.25-.5,6.31.94,8.2.94,1.21,2.25,1.85,3.8,1.85,2.33,0,4.79-1.46,6.77-3.73.19-.05.4-.08.58-.11,9.38-1.84,18.93-2.53,28.45-2.08,8.03.38,16.07,1.59,23.89,3.59v1.5c0,.73-.59,1.31-1.31,1.33-9.1.2-17.66,2.55-25.23,6.53,28.81,22.2,49.35,55.19,55,94.05.27,1.77.49,3.56.67,5.34,1.15,10.53,1.13,20.92.04,31.09Z"/>
        <path class="cls-1" d="M139.47,220.55c-1.94.41-3.96.63-6.03.63-7.12,0-13.63-2.58-18.67-6.86-3.75-5.76-7.04-11.7-9.88-17.77-1.1-2.37-2.14-4.74-3.1-7.15l2.81,2.33,34.86,28.81Z"/>
      </g>
      <path class="cls-2" d="M87.89,21.66c1.15,1.52,1.82,3.4,2.04,5.76,5.33-.69,10.82-1.04,16.34-1.04,1.24,0,2.52.02,3.84.05-7.72-3.44-14.89-7.94-21.37-13.42-.21-.18-.51-.21-.75-.07-3.06,1.77-6.04,3.74-8.89,5.88.79-.21,1.58-.31,2.36-.31,2.58,0,4.87,1.12,6.45,3.15Z"/>
      <path class="cls-3" d="M73.14,140.82c.06.07.13.14.19.21-2.4,1.25-4.83,2.45-7.29,3.58,5.85,4.57,11.98,9.12,18.42,13.6,3.31,2.31,6.61,4.54,9.9,6.68v.02c1.93,1.26,3.85,2.47,5.77,3.68.27-1.43.52-2.87.74-4.33.06.04.13.08.19.12-10.27-6.66-19.64-14.58-27.9-23.55Z"/>
      <path class="cls-3" d="M168.16,126.62c-3.64-14.44-9.39-28.34-17.07-41.1-3.83-6.36-8.12-12.44-12.83-18.17-3.48-4.23-7.07-8-7.42-8.37-1.55-1.62-2.91-2.97-3.96-3.99,4.46-3.77,9.97-5.53,16.02-5.28,1.3-8,1.1-16.91,0-26.7l-3.22-.04c-3.27-.05-6.54-.36-9.74-1.04-13.5-2.86-25.97-9.26-36.36-18.59l-3.73-3.35-4.41,2.38c-6.74,3.63-13.09,8.06-18.88,13.17-5.53,4.89-10.52,10.36-14.83,16.28l-1.13,1.55-.15,1.45c-1.15,5.75-2.29,11.46-3.44,17.2-6.5,20.66-6.05,42.05.77,61.14-2.33,1.55-2,1.33-4.34,2.88-5.6-5.16-11.08-10.48-16.41-15.93-.69-.7-1.47-1.31-2.36-1.74-2.69-1.3-5.7-1.09-8.07.37-8.33,5.1-14.31,13.48-16.39,23.01-.8,3.64.86,7.32,4.14,9.15,10.64,5.92,21.31,12.1,31.85,18.45-2.5.42-5.02.95-7.55,1.57l-.38.1c-3.86.96-6.31,4.74-5.61,8.65l.57,3.18c.7,3.96,3.97,7.1,7.99,7.29,1.12.05,2.23-.12,3.28-.5,7.48-2.7,14.62-4.07,21.23-4.07,2.55,0,5.03.21,7.4.62,3.65,2.34,7.22,4.67,10.63,6.94,5.89,3.89,11.95,8.01,18.05,12.25v.06l3.11,2.12c.75,3.6,1.86,7.67,3.54,12.02,3.42,8.86,8.44,19.2,16.98,24.13,7.48,4.32,17.04,5.42,25.39,3.32,9.05-2.27,17.3-8.16,22.6-16.99,5.37-8.95,7.57-19.36,8.5-29.64,1.63-18.1.7-36.12-3.75-53.78ZM133.44,221.17c-7.12,0-13.63-2.58-18.67-6.86-3.75-5.76-7.04-11.7-9.88-17.77-1.1-2.37-2.14-4.74-3.1-7.15l2.81,2.33,34.86,28.81c-1.94.41-3.96.63-6.03.63ZM164.88,179.56c-.24,2.35-.55,4.71-.91,7.05-2.69-1.36-5.31-2.83-7.89-4.38-12.06-7.26-22.92-16.43-32.23-26.99-12.5-14.17-22.19-30.83-28.29-48.76v.02s-.04.02-.04.02c-1.75,1.16-2.51,3.37-1.84,5.36,8.92,26.44,25.45,50.27,47.15,67.78,1.13.91.19,2.73-1.21,2.33-11.89-3.43-23.15-8.33-33.58-14.51-.34,1.37-.73,2.74-1.14,4.08,1.86,1.14,3.72,2.29,5.56,3.38,18.31,10.87,35.56,19.28,50.59,25.72-2.18,7.28-7.16,13.34-13.68,16.94-12.96-10.18-27.12-20.84-42.09-31.47-2.11-1.49-4.21-2.98-6.34-4.45v-.02c-6.95-4.87-14.03-9.7-21.26-14.48-3.98-2.64-7.94-5.22-11.86-7.73-10.51-2.17-22.06-.73-33.75,3.5-.78.28-1.63-.19-1.77-1.01l-.47-2.66c-.13-.69.32-1.36,1.01-1.52,2.14-.46,6.5-1.39,8.73-1.69,2.97-.42,5.83-.67,8.56-.77,3.69-.13,7.13.03,10.25.41.48.06.7-.58.29-.83-1.68-1.06-3.35-2.11-5.02-3.15-15.75-9.83-31.08-18.83-45.86-27.05-.49-.27-.75-.83-.63-1.36,1.7-7.81,6.56-14.46,13.19-18.5.47-.29,1.08-.21,1.47.19,10.9,11.14,24.26,23.66,39.88,36.17.2.16.4.31.6.47,2.59-1.42,5.11-2.9,7.6-4.48-13.53-15.67-20.44-35.42-20.44-55.54,0-9.01,1.38-18.08,4.17-26.91,1.9-6,3.2-12.25,3.86-18.7,4.02-5.54,8.66-10.61,13.78-15.14,5.23-4.61,10.97-8.66,17.15-12.02.23-.13.52-.1.73.08,12.47,11.08,28.12,18.61,45.41,21.03.66.09,1.16.64,1.16,1.3v1.96c-7.73-1.88-15.67-3.02-23.59-3.4-8.62-.4-17.27.08-25.81,1.47t0,0c.22-.98.31-1.91.31-2.81,0-1.91-.47-3.6-1.39-4.81-.93-1.21-2.25-1.84-3.79-1.84-4.13,0-8.69,4.54-10.16,10.13-.85,3.25-.5,6.31.94,8.2.94,1.21,2.25,1.85,3.8,1.85,2.33,0,4.79-1.46,6.77-3.73.19-.05.4-.08.58-.11,9.38-1.84,18.93-2.53,28.45-2.08,8.03.38,16.07,1.59,23.89,3.59v1.5c0,.73-.59,1.31-1.31,1.33-9.1.2-17.66,2.55-25.23,6.53,28.81,22.2,49.35,55.19,55,94.05.27,1.77.49,3.56.67,5.34,1.15,10.53,1.13,20.92.04,31.09Z"/>
    </g>
  </g>
</svg>