<?xml version="1.0" encoding="UTF-8"?>
<svg id="Capa_2" data-name="Capa 2" xmlns="http://www.w3.org/2000/svg" viewBox="0 0 353.28 55.51">
  <defs>
    <style>
      .cls-1 {
        fill: #e9e8dd;
      }

      .cls-2 {
        fill: #ffdf43;
      }
    </style>
  </defs>
  <g id="Capa_1-2" data-name="Capa 1">
    <g>
      <g>
        <path class="cls-2" d="M67.59,13.87c-.02.68-.07.68-.08,1.36s-.03.68-.04,1.36.02.68,0,1.36-.03.68-.05,1.36-.02.68-.03,1.36.01.68,0,1.36-.03.68-.05,1.36-.01.68-.03,1.36-.05.68-.07,1.36,0,.68-.03,1.37c0,.28-.25.52-.52.52-.84,0-.84-.05-1.68-.05s-.84.02-1.68.02c-.29,0-.54-.24-.53-.52.02-.67.03-.67.05-1.33s.06-.66.08-1.33-.02-.67,0-1.33.07-.66.09-1.33.02-.67.04-1.33-.03-.67,0-1.33.07-.66.09-1.33.02-.67.04-1.33.02-.66.04-1.33-.02-.67,0-1.33.04-.67.06-1.33c.02-.67-.01-.67,0-1.33s.08-.66.1-1.33,0-.67.02-1.34c.02-.67.03-.67.05-1.34,0-.28.23-.51.5-.51.72,0,.72-.01,1.43-.01s.72.01,1.43.01.72.05,1.44.05.72-.04,1.44-.04c.21,0,.36.14.44.34.26.63.33.6.58,1.23s.23.64.49,1.27.23.64.49,1.27.3.61.56,1.24.18.66.44,1.29.27.63.52,1.26q.26.63.51,1.26c.26.63.32.6.57,1.24.26.63.18.66.44,1.29s.29.62.54,1.25c.17.43.82.43.99,0,.25-.63.23-.64.48-1.26s.23-.64.48-1.27.25-.63.49-1.26.24-.63.48-1.26.26-.63.51-1.25.27-.62.51-1.25.27-.62.52-1.25.23-.64.48-1.27.23-.64.48-1.27.27-.62.52-1.25c.08-.19.25-.33.46-.33.71,0,.71.04,1.43.04s.71-.05,1.43-.05.72.04,1.43.04.72-.06,1.43-.06c.28,0,.5.25.5.52.02.67.06.66.09,1.33s-.03.67,0,1.33c.02.67.07.66.09,1.33s.01.67.04,1.33.02.67.05,1.33,0,.67.03,1.33c.02.67,0,.67.02,1.33s.01.67.03,1.33c.02.66,0,.67.03,1.33s.06.66.08,1.33c.02.67.04.67.06,1.33s.05.67.07,1.33-.05.67-.03,1.34,0,.67.03,1.34.08.67.1,1.33c0,.29-.24.53-.53.53-.63,0-.63-.03-1.26-.03s-.63,0-1.26,0-.63.03-1.26.03c-.28,0-.48-.24-.49-.52-.02-.68-.02-.68-.04-1.36s-.03-.68-.05-1.37c-.02-.68,0-.68-.02-1.37s0-.68-.02-1.36-.07-.68-.09-1.36-.01-.68-.03-1.37-.03-.68-.04-1.37-.02-.68-.04-1.37-.03-.68-.05-1.37.04-.69.02-1.37c0-.28-.42-.35-.52-.09-.25.63-.24.63-.49,1.26s-.23.64-.48,1.27-.29.61-.54,1.24-.23.64-.48,1.27c-.25.63-.27.62-.52,1.25s-.27.62-.52,1.25-.19.65-.44,1.28-.3.61-.55,1.24-.2.65-.46,1.28-.29.61-.54,1.24c-.08.19-.26.35-.47.35-.61,0-.61,0-1.22,0s-.61-.01-1.22-.01-.61-.05-1.22-.05c-.21,0-.38-.11-.45-.3-.26-.63-.24-.63-.5-1.26s-.27-.62-.53-1.25-.28-.62-.54-1.24-.26-.63-.52-1.25c-.26-.63-.29-.61-.55-1.24-.26-.63-.23-.64-.49-1.27s-.28-.62-.53-1.25-.27-.63-.52-1.25-.21-.65-.47-1.28-.29-.62-.55-1.25c-.11-.25-.45-.19-.45.09Z"/>
        <path class="cls-2" d="M99.38,7.01c.65,0,.65-.05,1.3-.05s.65.03,1.3.03.65-.03,1.3-.03.65,0,1.3,0c.22,0,.37.16.44.37.21.6.23.6.44,1.2s.19.61.39,1.22.23.6.45,1.2.2.64.43,1.27.27.61.5,1.24.23.63.46,1.26.24.62.47,1.25.19.64.42,1.27.22.63.45,1.26.3.6.53,1.23.18.65.41,1.27.23.63.46,1.26.23.63.46,1.26.29.61.52,1.24.21.64.45,1.27.19.65.42,1.28c.12.33-.1.64-.45.64-.68,0-.68.06-1.36.06s-.68-.04-1.37-.04-.68.02-1.37.02c-.22,0-.44-.13-.52-.33-.24-.68-.19-.7-.43-1.38s-.26-.67-.5-1.35-.21-.69-.45-1.37c-.07-.2-.29-.34-.5-.34-.72,0-.72.03-1.44.03s-.72.01-1.44.01-.72,0-1.44,0-.72.02-1.45.02-.72-.04-1.45-.04c-.22,0-.37.15-.44.35-.24.68-.29.66-.53,1.34s-.2.7-.44,1.38-.29.66-.53,1.35c-.07.2-.24.39-.46.39-.63,0-.63-.07-1.25-.07s-.63.05-1.25.05-.63-.06-1.25-.06c-.36,0-.62-.32-.49-.65.23-.62.21-.63.44-1.26.23-.62.25-.62.48-1.24s.24-.62.48-1.24.24-.62.47-1.24.19-.64.42-1.26c.23-.62.24-.62.47-1.24s.28-.61.51-1.23.24-.62.47-1.25c.23-.62.23-.62.47-1.25s.2-.63.43-1.26.26-.61.49-1.24.22-.63.46-1.25.2-.64.43-1.26.27-.61.5-1.24.21-.64.44-1.26.22-.63.45-1.26c.07-.2.28-.29.5-.29ZM104.41,19.43c-.24-.69-.29-.67-.53-1.36-.24-.69-.21-.7-.46-1.39s-.27-.68-.52-1.37c-.24-.69-.24-.69-.49-1.38-.24-.69-.2-.71-.44-1.39-.08-.23-.45-.22-.53,0-.24.69-.26.68-.5,1.37s-.21.7-.45,1.39-.27.68-.51,1.36-.2.7-.44,1.39-.24.69-.48,1.38c-.06.17.05.31.23.31.6,0,.6.05,1.21.05s.61.02,1.21.02.61-.08,1.21-.08.61.05,1.21.05c.18,0,.33-.2.27-.37Z"/>
        <path class="cls-2" d="M121.57,20.15c-.36-.01-.36-.06-.73-.07-.29,0-.53.24-.53.52,0,.69-.02.69-.02,1.37,0,.69,0,.69,0,1.37s-.01.69-.01,1.37.05.69.05,1.38,0,.69,0,1.38c0,.28-.25.54-.54.54-.65,0-.65,0-1.3,0s-.65-.03-1.31-.03-.65,0-1.31,0c-.28,0-.55-.23-.55-.52,0-.66.04-.66.04-1.32s0-.66,0-1.32-.04-.66-.04-1.32.04-.66.04-1.32.02-.66.02-1.32,0-.66,0-1.32-.06-.66-.06-1.32.05-.66.05-1.32,0-.66,0-1.32,0-.66,0-1.32-.04-.66-.04-1.32.04-.66.04-1.32q0-.66,0-1.32c0-.66-.02-.66-.02-1.33s0-.66,0-1.33c0-.27.21-.47.48-.49.41-.03.83-.07,1.27-.1s.84-.1,1.27-.12.84.03,1.27.01.84-.07,1.27-.08.84.05,1.27.05c.48,0,.94-.06,1.38-.04.48.03.94.08,1.38.14.48.06.92.17,1.35.27.47.1.94.17,1.35.32.45.17.85.41,1.23.64.41.25.79.51,1.1.83s.59.7.81,1.12.35.83.45,1.3c.09.42.09.88.09,1.37s0,.96-.1,1.42-.31.9-.52,1.32-.49.8-.79,1.17-.62.7-.98,1.02-.73.59-1.14.84c-.25.15-.34.52-.18.77.38.56.38.55.76,1.11s.4.54.77,1.1c.38.56.36.57.73,1.13s.42.53.79,1.09c.38.56.36.57.74,1.13s.41.54.78,1.1.36.57.73,1.13c.23.34-.03.83-.44.83-.73,0-.73-.05-1.45-.05s-.73.05-1.46.05-.73,0-1.46,0c-.18,0-.32-.14-.41-.29-.33-.53-.37-.51-.7-1.03s-.32-.53-.66-1.06-.35-.52-.68-1.04-.28-.56-.61-1.09-.38-.5-.71-1.03-.33-.53-.66-1.06c-.34-.53-.58-.83-.85-1.01-.33-.22-.68-.24-1.28-.26ZM123.83,16.79c.08,0,.18.02.25-.02.48-.25.88-.57,1.21-.91.36-.38.64-.8.82-1.27s.26-.97.26-1.49c0-.56-.14-1.05-.4-1.44s-.7-.68-1.18-.91c-.42-.2-.9-.34-1.43-.43-.47-.08-.97-.12-1.49-.12-.43,0-.88.04-1.31.07-.13.01-.23.09-.23.22,0,.61,0,.61,0,1.22s.03.61.03,1.22c0,.61-.04.61-.04,1.22s0,.61,0,1.22.04.61.04,1.22c0,.14.08.26.22.25.81,0,.81.02,1.63,0s.81-.06,1.63-.07Z"/>
        <path class="cls-2" d="M137.4,7.16c.65,0,.65.06,1.3.06s.65-.06,1.31-.06.65.02,1.31.02c.28,0,.53.24.53.52,0,.66-.02.66-.02,1.32,0,.66.04.66.04,1.32s-.02.66-.02,1.32-.03.66-.03,1.32.02.66.02,1.32-.04.66-.04,1.32.03.66.03,1.32-.03.66-.03,1.32.04.66.04,1.32-.06.66-.06,1.32c0,.66,0,.66,0,1.32s.03.66.03,1.32-.05.66-.05,1.32.06.66.06,1.32-.01.66-.01,1.32c0,.28-.24.54-.52.54-.65,0-.65-.01-1.3-.01s-.65,0-1.31,0-.65-.04-1.31-.04c-.28,0-.53-.21-.53-.49,0-.66.05-.66.05-1.32s-.02-.66-.02-1.32c0-.66.02-.66.02-1.32s-.05-.66-.05-1.32-.01-.66-.01-1.32-.01-.66-.01-1.32.03-.66.03-1.32-.02-.66-.02-1.32.05-.66.05-1.32.02-.66.02-1.32,0-.66,0-1.32c0-.66-.07-.66-.07-1.32s.03-.66.03-1.32.03-.66.03-1.32,0-.66,0-1.32c0-.28.21-.54.49-.54Z"/>
        <path class="cls-2" d="M152.77,6.99c.65,0,.65.02,1.3.02s.65,0,1.3,0,.65,0,1.3,0,.65,0,1.3,0c.22,0,.43.1.5.3.21.6.2.61.41,1.21s.23.6.44,1.2.16.62.38,1.22.2.64.43,1.27.25.62.48,1.25.26.62.49,1.25.22.63.45,1.26.2.64.43,1.27.27.62.5,1.24.26.62.49,1.24.18.65.41,1.28.25.62.48,1.25.24.63.47,1.26.25.62.48,1.25.23.63.46,1.26.18.65.41,1.28c.12.33-.09.67-.44.67-.68,0-.68.02-1.36.02-.68,0-.68,0-1.37,0s-.68,0-1.37,0c-.22,0-.43-.14-.5-.35-.24-.68-.23-.68-.47-1.36s-.22-.69-.46-1.37-.23-.68-.47-1.36c-.07-.2-.27-.35-.49-.35-.72,0-.72-.02-1.44-.02-.72,0-.72.05-1.44.05-.72,0-.72-.05-1.44-.05s-.72.06-1.45.06c-.72,0-.72,0-1.45,0-.22,0-.41.12-.48.32-.24.68-.24.68-.47,1.36s-.23.69-.47,1.37-.23.68-.47,1.36c-.07.2-.29.32-.5.32-.63,0-.63,0-1.25,0s-.63-.02-1.25-.02-.63.03-1.25.03c-.36,0-.58-.35-.45-.68.23-.62.21-.63.45-1.25s.25-.62.48-1.24.23-.62.47-1.25.18-.64.41-1.27.22-.63.45-1.25.26-.61.5-1.24.23-.62.46-1.25.23-.63.46-1.25c.23-.62.26-.61.49-1.24s.2-.64.43-1.26c.23-.62.26-.61.5-1.24s.24-.62.47-1.25.18-.64.42-1.27.23-.63.46-1.25.28-.61.52-1.23.23-.63.47-1.25c.07-.2.24-.33.45-.33ZM157.78,19.44c-.24-.69-.22-.69-.47-1.38s-.24-.69-.48-1.38-.25-.69-.49-1.37-.24-.69-.48-1.38-.29-.67-.54-1.36c-.08-.23-.38-.23-.46,0-.24.69-.21.7-.45,1.39s-.28.68-.52,1.36-.28.68-.52,1.36-.22.69-.46,1.38-.21.7-.45,1.39c-.06.17.05.34.23.34.6,0,.6.03,1.21.03s.61-.04,1.21-.04.61-.03,1.21-.03.61.06,1.21.06c.18,0,.31-.2.25-.37Z"/>
        <path class="cls-2" d="M173.34,15.2c0,.68.02.68.02,1.36,0,.68-.05.68-.05,1.36s.03.68.03,1.36,0,.68,0,1.36.03.68.03,1.36-.06.68-.06,1.36,0,.68,0,1.36,0,.68,0,1.37c0,.68.03.68.03,1.37,0,.28-.22.51-.51.51-.59,0-.59-.02-1.18-.02s-.59.02-1.18.02-.59-.03-1.18-.03c-.28,0-.5-.21-.5-.49,0-.66,0-.66,0-1.32s-.01-.66-.01-1.32.03-.66.03-1.32-.05-.66-.05-1.32.04-.66.04-1.32.02-.66.02-1.32c0-.66-.04-.66-.04-1.32s-.02-.66-.02-1.32c0-.66.02-.66.02-1.32s-.01-.66-.01-1.32.05-.66.05-1.32,0-.66,0-1.32,0-.66,0-1.32-.05-.66-.05-1.32,0-.66,0-1.32c0-.28.26-.48.54-.48.59,0,.59-.03,1.17-.03s.59-.04,1.18-.04.59.05,1.18.05c.15,0,.28.05.38.16.43.49.41.51.84,1s.46.47.89.96.41.51.84,1,.43.49.86.98c.43.49.42.5.85.99s.42.51.84,1c.43.49.48.45.91.94s.42.51.85,1,.41.51.84,1c.43.5.42.5.85,1q.43.5.86.99c.43.5.46.47.89.97.15.18.45.08.45-.15,0-.71-.01-.71-.01-1.42s.02-.71.02-1.42,0-.71,0-1.42c0-.71.02-.71.02-1.42s-.07-.71-.07-1.42c0-.71.07-.71.07-1.42s-.07-.71-.07-1.42.06-.71.06-1.42c0-.28.2-.5.48-.5.6,0,.6.01,1.19.01s.6-.06,1.19-.06.6.06,1.19.06c.28,0,.52.2.52.49,0,.66,0,.66,0,1.32s-.01.66-.01,1.32.03.66.03,1.32-.03.66-.03,1.32c0,.66.02.66.02,1.32s-.05.66-.05,1.32,0,.66,0,1.32,0,.66,0,1.32,0,.66,0,1.32c0,.66.04.66.04,1.32s-.04.66-.04,1.32,0,.66,0,1.32,0,.66,0,1.32c0,.66.05.66.05,1.32s0,.66,0,1.32c0,.28-.25.51-.53.51-.7,0-.7.02-1.41.02s-.7,0-1.41,0c-.15,0-.31-.07-.4-.18-.43-.49-.44-.48-.87-.97s-.42-.49-.85-.98-.39-.52-.82-1.01-.45-.47-.87-.96c-.42-.49-.38-.53-.81-1.02s-.46-.46-.89-.95-.39-.52-.81-1.01-.48-.45-.9-.94-.42-.5-.84-.99-.41-.51-.84-1-.43-.49-.85-.98-.4-.51-.83-1.01-.44-.48-.87-.97c-.15-.18-.45-.06-.45.17Z"/>
        <path class="cls-2" d="M192.62,18.07c0-.47.06-.94.11-1.4s.15-.93.24-1.38.2-.92.34-1.36.29-.89.49-1.31.45-.82.7-1.21.5-.79.8-1.14.58-.73.93-1.05.73-.57,1.13-.84.79-.47,1.22-.68.85-.35,1.3-.5.87-.3,1.34-.39c.45-.09.91-.17,1.38-.21.45-.04.92-.03,1.4-.03.45,0,.89,0,1.31.04.45.04.89.04,1.31.12.44.08.87.21,1.27.33.43.13.84.28,1.23.45.41.18.77.44,1.13.66s.77.44,1.09.72.62.62.9.95.55.68.78,1.05.44.75.62,1.15.34.8.47,1.22.23.84.31,1.27.18.85.22,1.29c.04.43.07.87.07,1.31,0,.47-.06.94-.1,1.4s-.13.93-.22,1.38-.2.91-.35,1.35-.31.88-.51,1.3-.43.83-.67,1.22-.55.75-.85,1.1-.59.72-.93,1.04-.7.62-1.09.88-.81.46-1.23.67-.84.39-1.29.54-.9.21-1.36.3-.89.23-1.37.28c-.45.04-.92.03-1.4.03-.45,0-.88-.03-1.3-.07-.45-.04-.89-.05-1.3-.13-.44-.08-.87-.19-1.27-.32-.43-.13-.84-.28-1.23-.46s-.76-.45-1.12-.68-.74-.47-1.06-.75-.66-.58-.94-.91-.51-.7-.74-1.07-.5-.72-.68-1.11-.31-.81-.45-1.23-.21-.84-.3-1.27-.18-.85-.23-1.29-.09-.86-.09-1.31ZM209.32,17.48c0-.45.01-.89-.04-1.33s-.09-.9-.2-1.32-.26-.86-.43-1.26-.4-.81-.64-1.17-.5-.75-.82-1.05-.7-.55-1.09-.77-.81-.31-1.26-.41c-.41-.09-.84-.18-1.31-.18s-.91.04-1.32.14c-.44.11-.87.26-1.24.48s-.71.53-1.01.86-.55.68-.78,1.07c-.22.37-.43.76-.59,1.19-.15.4-.26.84-.35,1.28s-.1.87-.15,1.32-.08.87-.08,1.32.03.9.08,1.33.07.9.17,1.32c.11.44.3.85.47,1.25.17.42.34.83.57,1.2s.53.73.84,1.03.68.58,1.07.79.8.36,1.24.46c.41.1.85.15,1.32.15s.9-.09,1.31-.2c.44-.11.84-.29,1.21-.51s.74-.48,1.05-.8.58-.66.81-1.05c.22-.37.4-.78.56-1.21.15-.4.27-.83.36-1.28.09-.42.16-.86.21-1.32.04-.43.02-.87.02-1.33Z"/>
      </g>
      <g>
        <path class="cls-2" d="M222.57,18.03c0-.47.04-.94.08-1.4s.1-.93.2-1.38.15-.93.29-1.37.35-.87.54-1.29.39-.85.64-1.25.54-.76.84-1.12.61-.71.96-1.02.74-.56,1.13-.82.75-.55,1.18-.76.85-.38,1.3-.53.9-.21,1.37-.31c.45-.09.91-.16,1.38-.2.45-.04.92-.08,1.4-.08.45,0,.89.04,1.31.08.45.04.89.06,1.3.14.44.08.86.21,1.27.34.43.13.86.22,1.25.4.41.18.77.44,1.13.67s.76.45,1.09.73.64.61.92.94.53.7.76,1.07.44.75.62,1.15.29.82.42,1.24.23.83.32,1.27.21.85.25,1.29-.02.87-.02,1.31c0,.47.03.94-.01,1.4s-.14.93-.23,1.38-.21.91-.35,1.35-.3.89-.5,1.31-.41.84-.66,1.24-.57.74-.87,1.09-.57.74-.92,1.05-.72.6-1.11.86-.8.48-1.22.68-.86.33-1.31.48-.87.32-1.33.42-.91.14-1.39.18c-.45.04-.92.05-1.4.05-.45,0-.89.04-1.31,0-.45-.04-.88-.14-1.29-.21-.44-.08-.87-.18-1.27-.31-.43-.13-.83-.31-1.21-.48s-.8-.37-1.16-.6-.74-.48-1.06-.76-.6-.63-.89-.96-.56-.67-.79-1.03-.47-.73-.65-1.13-.33-.8-.46-1.22-.24-.83-.32-1.26-.18-.85-.22-1.29,0-.87,0-1.31ZM239.26,17.44c0-.45-.01-.9-.06-1.33s-.14-.89-.24-1.31-.3-.84-.47-1.25-.34-.83-.58-1.19-.55-.7-.87-1-.66-.58-1.06-.79-.8-.35-1.24-.45c-.41-.09-.85-.19-1.32-.19s-.9.12-1.3.22c-.44.11-.84.28-1.21.5s-.75.46-1.06.78-.56.67-.79,1.06c-.22.37-.39.78-.54,1.21-.15.4-.29.83-.38,1.27s-.12.87-.17,1.32-.09.87-.09,1.32.09.89.13,1.33.07.9.17,1.32c.11.44.3.85.46,1.25.17.42.36.82.6,1.18s.5.74.82,1.04.67.57,1.07.78.78.41,1.23.51c.41.1.86.15,1.33.15s.9-.12,1.31-.23c.44-.11.88-.22,1.25-.44s.69-.55,1-.88.58-.65.81-1.05c.22-.37.41-.77.56-1.21.15-.4.26-.83.35-1.28.09-.42.14-.86.19-1.32.04-.43.1-.87.1-1.33Z"/>
        <path class="cls-2" d="M255.31,20.08c-.36-.01-.36,0-.73,0-.29,0-.53.2-.53.49q0,.69,0,1.37c0,.69-.02.69-.02,1.37s-.02.69-.02,1.37.04.69.04,1.38.03.69.03,1.38c0,.28-.26.54-.55.54-.65,0-.65,0-1.3,0s-.65,0-1.31,0-.65-.07-1.31-.07c-.28,0-.48-.19-.48-.48,0-.66-.04-.66-.04-1.32s-.01-.66-.01-1.32,0-.66,0-1.32.03-.66.03-1.32c0-.66-.03-.66-.03-1.32,0-.66.02-.66.02-1.32s-.02-.66-.02-1.32.03-.66.03-1.32,0-.66,0-1.32.02-.66.02-1.32c0-.66-.06-.66-.06-1.32s.06-.66.06-1.32-.02-.66-.02-1.32-.05-.66-.05-1.33.04-.66.04-1.33c0-.27.2-.48.47-.51.41-.03.84-.04,1.27-.07s.84-.06,1.27-.09.84-.03,1.27-.04.84-.04,1.27-.04.84-.05,1.27-.05c.48,0,.94.03,1.38.06.48.03.94.06,1.38.12.48.06.92.18,1.35.27.47.1.91.23,1.32.38.45.17.89.32,1.27.54.41.25.74.56,1.05.88s.63.67.84,1.08.37.83.47,1.3c.09.42.09.89.09,1.38s-.04.96-.15,1.41-.28.91-.49,1.33-.46.83-.76,1.2-.62.71-.99,1.03-.76.55-1.17.8c-.25.15-.35.52-.19.76.38.56.39.55.76,1.11s.43.53.8,1.08.32.59.7,1.15.41.53.79,1.09c.38.56.34.58.72,1.14s.39.55.77,1.11.36.57.73,1.13c.23.34.01.77-.4.77-.73,0-.73-.03-1.45-.03s-.73.06-1.46.06-.73-.04-1.46-.04c-.18,0-.33-.08-.42-.23-.33-.53-.32-.53-.65-1.06s-.39-.49-.72-1.02-.32-.53-.65-1.06-.29-.55-.63-1.08-.36-.51-.69-1.04q-.33-.53-.67-1.06c-.34-.53-.6-.81-.86-.99-.33-.22-.67-.28-1.26-.31ZM257.57,16.77c.08,0,.16-.04.23-.08.48-.25.89-.54,1.22-.88.36-.38.62-.81.8-1.28s.28-.96.28-1.48c0-.56-.13-1.05-.4-1.44s-.69-.69-1.17-.93c-.42-.2-.9-.32-1.43-.41-.47-.08-.96-.13-1.49-.13-.43,0-.88.03-1.31.07-.13.01-.2.09-.2.22,0,.61-.07.61-.07,1.22s0,.61,0,1.22.04.61.04,1.22.01.61.01,1.22,0,.61,0,1.22c0,.14.09.27.23.26.81,0,.81-.04,1.63-.05s.81.01,1.63,0Z"/>
        <path class="cls-2" d="M274.89,10.98c-.66,0-.66-.06-1.32-.06-.66,0-.66,0-1.32,0s-.66,0-1.32,0-.66,0-1.32,0-.66.06-1.32.06c-.28,0-.53-.27-.53-.55,0-.7.03-.7.03-1.39s-.04-.7-.04-1.39c0-.28.26-.54.54-.54.68,0,.68.03,1.36.03s.68.04,1.36.04.68-.08,1.36-.08.68,0,1.36,0,.68.05,1.36.05.68,0,1.36,0,.68.04,1.36.04.68-.02,1.36-.02.68-.02,1.36-.02.68,0,1.37,0,.68.03,1.37.03.68-.04,1.37-.04.68.03,1.37.03.68,0,1.37,0c.28,0,.49.22.49.5,0,.7.03.7.03,1.39s0,.7,0,1.39c0,.28-.23.48-.52.48-.65,0-.65.04-1.31.04s-.65.02-1.31.02-.65-.06-1.31-.06-.66.07-1.31.07-.66,0-1.31,0c-.28,0-.54.19-.54.47,0,.66.02.66.02,1.33s.03.67.03,1.33c0,.66-.05.66-.05,1.33s.05.66.05,1.33-.05.66-.05,1.33,0,.66,0,1.33.06.66.06,1.33,0,.67,0,1.33.02.67.02,1.33-.03.67-.03,1.33-.01.67-.01,1.33.02.67.02,1.33c0,.28-.24.54-.53.54-.65,0-.65-.01-1.3-.01s-.65-.04-1.31-.04-.65.02-1.31.02c-.28,0-.52-.22-.52-.5,0-.66.03-.66.03-1.33s-.03-.67-.03-1.33,0-.66,0-1.33-.03-.66-.03-1.33.03-.66.03-1.33.02-.66.02-1.33-.05-.66-.05-1.33.06-.67.06-1.33,0-.67,0-1.33,0-.67,0-1.33c0-.67-.03-.67-.03-1.33s0-.67,0-1.33c0-.28-.22-.49-.5-.49Z"/>
        <path class="cls-2" d="M291.51,7.11c.66,0,.66,0,1.32,0s.66.05,1.32.05.66-.04,1.32-.04.66,0,1.32,0,.66.04,1.32.04.66-.06,1.32-.06.66,0,1.32,0,.66,0,1.32,0,.66.04,1.32.04.66,0,1.32,0,.66-.02,1.32-.02c.28,0,.55.23.55.51,0,.65-.03.65-.03,1.31s-.03.65-.03,1.31c0,.28-.21.47-.49.47-.68,0-.68.06-1.36.06s-.68.01-1.36.01c-.68,0-.68-.04-1.37-.04s-.68.04-1.37.04-.68-.06-1.37-.06-.68.06-1.37.06-.68-.07-1.37-.07c-.28,0-.55.27-.55.55,0,.62,0,.62,0,1.25,0,.63.02.63.02,1.25s.04.63.04,1.25c0,.28.2.47.48.47.66,0,.66.02,1.33.02s.66.02,1.33.02.66-.02,1.33-.02.66.06,1.33.06.66-.06,1.33-.06c.28,0,.52.25.52.53,0,.64-.02.64-.02,1.29s0,.64,0,1.29c0,.28-.23.55-.51.55-.66,0-.66-.08-1.33-.08s-.66,0-1.33,0-.66.04-1.33.04-.66,0-1.33,0-.66,0-1.33,0c-.28,0-.53.21-.53.49,0,.69,0,.69,0,1.37s.05.69.05,1.38-.07.69-.07,1.38c0,.28.27.51.55.51.69,0,.69-.02,1.37-.02s.69.04,1.38.04.69-.02,1.38-.02.69.02,1.38.02.69-.06,1.38-.06.69.06,1.38.06.69-.04,1.38-.04c.28,0,.53.25.53.53,0,.65.02.65.02,1.31s-.02.65-.02,1.31c0,.28-.25.5-.53.5-.66,0-.66.04-1.33.04-.66,0-.66,0-1.32,0s-.66-.06-1.33-.06-.66,0-1.33,0c-.66,0-.66.05-1.32.05q-.66,0-1.32,0t-1.33,0c-.66,0-.66-.04-1.33-.04s-.66.03-1.33.03-.66,0-1.33,0-.66-.04-1.33-.04c-.28,0-.49-.22-.49-.5,0-.66,0-.66,0-1.32s0-.66,0-1.32,0-.66,0-1.32-.06-.66-.06-1.32.08-.66.08-1.32,0-.66,0-1.32-.02-.66-.02-1.32-.04-.66-.04-1.32.04-.66.04-1.32,0-.66,0-1.32.02-.66.02-1.32-.03-.66-.03-1.32c0-.66-.05-.66-.05-1.32s.02-.66.02-1.32.03-.66.03-1.32c0-.28.22-.55.5-.55Z"/>
        <path class="cls-2" d="M328.83,17.43c-.23,0-.23.05-.46.05-.03,0-.06-.05-.09-.04-.65.12-.64.16-1.28.27s-.66.05-1.31.16-.64.16-1.28.28c-.28.05-.47.31-.41.59.07.37.07.37.14.75.1.54.23,1.02.28,1.66.04.45,0,.99,0,1.69,0,.67.02.67.02,1.33,0,.25-.17.49-.41.53-.42.08-.84.08-1.24.11s-.83.07-1.24.07c-.45,0-.88-.02-1.29-.07-.44-.05-.87-.12-1.27-.24-.43-.12-.84-.26-1.22-.45s-.74-.45-1.08-.72-.61-.59-.88-.94-.48-.69-.68-1.09c-.18-.37-.33-.77-.44-1.21-.11-.4-.22-.81-.27-1.27-.05-.41-.02-.84-.02-1.3,0-.48,0-.94.06-1.38.06-.47.14-.93.26-1.36.13-.46.28-.89.47-1.3.21-.42.44-.82.73-1.17s.61-.69.99-.96.77-.5,1.21-.67c.41-.16.87-.24,1.35-.32.43-.07.89-.17,1.38-.17.42,0,.85.07,1.29.15.4.07.81.19,1.25.33.38.12.8.25,1.22.42.37.15.76.35,1.18.54.55.27.55.28,1.1.55.28.13.6,0,.7-.29.22-.68.21-.68.43-1.36s.22-.68.44-1.36c.07-.2.04-.44-.12-.57-.34-.28-.74-.46-1.11-.68s-.74-.45-1.14-.62-.8-.33-1.22-.45-.84-.17-1.28-.24-.84-.18-1.28-.21-.86.01-1.3.01-.9-.04-1.34,0-.89.13-1.32.2-.88.17-1.31.29-.85.29-1.26.46-.84.32-1.23.53-.77.45-1.13.71-.7.56-1.02.86-.65.61-.93.96-.53.71-.77,1.1-.39.8-.57,1.21-.37.8-.51,1.24-.25.85-.33,1.3-.11.87-.15,1.33-.06.88-.06,1.34c0,.48-.01.95.03,1.4.05.48.14.94.24,1.38.1.47.22.92.38,1.35.16.45.35.88.57,1.28s.5.79.78,1.16.59.73.93,1.04.7.62,1.08.88.8.47,1.22.68.84.38,1.29.54.88.27,1.34.38.91.16,1.38.23.91.19,1.38.22.92,0,1.4,0c.43,0,.87-.02,1.3-.04s.87-.06,1.29-.11.86-.12,1.28-.19.86-.14,1.28-.23.86-.15,1.27-.26.82-.3,1.22-.43c.21-.07.37-.23.37-.45,0-.65-.03-.65-.03-1.31s0-.65,0-1.31.05-.65.05-1.31-.06-.65-.06-1.31.01-.66.01-1.31-.02-.66-.02-1.31.08-.66.08-1.31c0-.14-.15-.26-.29-.26Z"/>
        <path class="cls-2" d="M340.28,6.96c.65,0,.65-.02,1.3-.02s.65,0,1.3,0,.65,0,1.3,0,.65-.04,1.3-.04c.22,0,.42.17.49.38.21.6.2.61.41,1.21s.23.6.43,1.2.2.61.42,1.21.21.64.44,1.26.2.64.43,1.27.23.63.46,1.26.28.61.51,1.24c.23.63.2.64.43,1.27s.22.63.46,1.26.23.63.46,1.25.24.62.48,1.25.23.63.46,1.26.23.63.46,1.26.2.64.43,1.27.24.63.47,1.26.28.61.52,1.24c.12.33-.15.66-.51.66-.68,0-.68.01-1.36.01s-.68.05-1.37.05-.68,0-1.37,0c-.22,0-.38-.18-.45-.39-.24-.68-.28-.67-.52-1.35s-.19-.7-.43-1.38-.24-.68-.48-1.36c-.07-.2-.3-.32-.51-.32-.72,0-.72.03-1.44.03s-.72-.02-1.44-.02-.72,0-1.44,0-.72-.06-1.45-.06-.72.08-1.45.08c-.22,0-.43.09-.51.29-.24.68-.25.68-.49,1.36s-.23.69-.47,1.37c-.24.68-.19.7-.43,1.38-.07.2-.29.34-.5.34-.63,0-.63,0-1.25,0s-.63-.04-1.25-.04-.63.05-1.25.05c-.36,0-.62-.39-.49-.72.23-.62.26-.61.49-1.24s.24-.62.48-1.24.22-.63.45-1.25.2-.63.43-1.26.23-.62.46-1.25.26-.61.49-1.24c.23-.62.18-.64.42-1.27.23-.62.28-.61.51-1.23s.2-.64.43-1.26.29-.6.52-1.22.18-.64.41-1.27.26-.61.49-1.24.2-.64.43-1.26.26-.62.49-1.24.18-.64.42-1.27.23-.63.47-1.25c.07-.2.3-.3.51-.3ZM345.3,19.39c-.24-.69-.26-.68-.51-1.37s-.24-.69-.48-1.38-.25-.69-.49-1.37-.28-.68-.53-1.36-.22-.7-.46-1.39c-.08-.23-.38-.23-.46,0-.24.69-.22.69-.46,1.38s-.23.69-.47,1.38c-.24.69-.26.68-.5,1.37s-.27.68-.51,1.37c-.24.69-.24.69-.48,1.38-.06.17.09.31.26.31.6,0,.6.04,1.21.04s.61,0,1.21,0,.61,0,1.21,0,.61-.01,1.21-.01c.18,0,.32-.18.26-.35Z"/>
      </g>
      <g>
        <path class="cls-1" d="M67.99,38.93c1.31,0,2.6.38,3.52,1.27.82.8,1.33,1.97,1.33,3.5s-.6,2.7-1.47,3.47c-1.03.93-2.44,1.33-3.57,1.33-1.62,0-1.62-.05-3.25-.05-.21,0-.43-.12-.43-.33,0-2.21,0-2.21,0-4.43,0-2.21.06-2.21.06-4.43,0-.21.15-.42.36-.42,1.72.03,1.72.08,3.45.08ZM67.21,46.99c1.03,0,1.98-.29,2.68-.82s1.15-1.32,1.15-2.48-.38-1.95-1-2.48-1.54-.78-2.59-.78c-.6,0-.6-.05-1.2-.05-.21,0-.33.22-.33.43,0,1.44,0,1.44,0,2.88,0,1.44-.06,1.44-.06,2.88,0,.21.19.34.4.34.48.03.48.08.96.08Z"/>
        <path class="cls-1" d="M76.8,39.27q0,2.21,0,4.43c0,2.21-.01,2.21-.01,4.43,0,.21-.15.4-.36.4-.48,0-.48-.03-.95-.03-.21,0-.37-.16-.37-.37,0-2.21-.05-2.21-.05-4.43,0-2.21.08-2.21.08-4.43,0-.21.13-.39.34-.39.48,0,.48.05.95.05.21,0,.37.13.37.34Z"/>
        <path class="cls-1" d="M85.26,39.93c-.34.36-.36.35-.71.71-.14.15-.39.21-.54.07-.38-.33-.87-.55-1.4-.55-.96,0-1.53.52-1.53,1.27,0,.65.5,1.01,1.45,1.31,1.53.47,3.04.96,3.04,2.94s-1.53,3.02-3.41,3.02c-1.08,0-2-.21-2.71-.76-.3-.23-.3-.67-.03-.93.18-.17.13-.21.31-.39.24-.23.65-.21.9,0,.41.36.93.62,1.5.62.92,0,1.69-.59,1.69-1.37,0-.72-.48-1.13-1.72-1.51-1.72-.53-2.89-1.08-2.89-2.82s1.5-2.87,3.59-2.87c.93,0,1.74.26,2.39.72.2.14.25.36.09.53Z"/>
        <path class="cls-1" d="M94.44,39.27c0,.4.01.4.01.79,0,.21-.21.36-.42.36-1.95,0-1.95-.02-3.9-.02-.21,0-.41.21-.41.42,0,.8.07.8.07,1.6,0,.21.13.36.34.36,1.83,0,1.83,0,3.65,0,.21,0,.38.19.38.4,0,.4-.04.4-.04.79,0,.21-.14.4-.34.4-1.83,0-1.83-.03-3.65-.03-.21,0-.38.18-.38.39,0,.92.02.92.02,1.85,0,.21.15.34.36.34,2.07,0,2.07.04,4.14.04.21,0,.35.18.35.38,0,.39.01.39.01.79,0,.21-.15.35-.36.35-1.46,0-1.46.01-2.93.01s-1.46.02-2.93.02c-.21,0-.38-.17-.38-.38,0-2.21.04-2.21.04-4.43,0-2.21,0-2.21,0-4.43,0-.21.13-.36.34-.36,1.4,0,1.4-.04,2.8-.04s1.4.06,2.8.06c.21,0,.41.13.41.34Z"/>
        <path class="cls-1" d="M99.08,38.9c.11,0,.29.05.35.14,1.14,1.74,1.11,1.76,2.24,3.5s1.08,1.78,2.22,3.52c0,.01,0-.01,0-.03.01-1.69.09-1.69.09-3.38s-.03-1.69-.03-3.38c0-.21.17-.38.38-.38.48,0,.48.02.95.02.21,0,.43.16.43.36,0,2.21-.06,2.21-.06,4.43s.02,2.21.02,4.43c0,.21-.18.33-.39.33-.79,0-.79.09-1.59.09-.11,0-.25-.12-.31-.21-1.16-1.8-1.19-1.78-2.34-3.58s-1.13-1.82-2.3-3.61c0-.01-.01-.02-.01,0-.01,1.75-.03,1.75-.03,3.5s0,1.75,0,3.5c0,.21-.15.41-.35.41-.48,0-.48-.02-.95-.02-.21,0-.35-.19-.35-.4,0-2.21-.07-2.21-.07-4.43,0-2.21.05-2.21.05-4.43,0-.21.16-.34.37-.34.84,0,.84-.03,1.68-.03ZM103.37,36.4c.27,0,.48.22.41.49-.24.84-.76,1.24-1.46,1.24-.31,0-.65-.15-1-.29-.38-.15-.76-.18-.95-.18-.23,0-.44.05-.57.31-.06.11-.18.22-.31.22-.08,0-.08,0-.16,0-.27,0-.43-.22-.35-.48.23-.81.66-1.3,1.4-1.3.35,0,.74.18,1.13.33.49.19.68.21.82.21.25,0,.47-.1.59-.34.06-.11.17-.26.3-.26.08,0,.08.04.16.04Z"/>
        <path class="cls-1" d="M113.03,48.73c-1.48,0-2.74-.5-3.63-1.38s-1.45-2.13-1.45-3.61.52-2.76,1.46-3.7c.86-.86,2.11-1.35,3.71-1.35,1.52,0,2.77.47,3.65,1.35.89.88,1.43,2.14,1.43,3.65s-.59,2.76-1.5,3.64-2.19,1.4-3.67,1.4ZM113.07,47.21c1.04,0,1.87-.41,2.44-1.06s.84-1.55.84-2.53c0-1.84-1.46-3.43-3.3-3.43-1.95,0-3.32,1.54-3.32,3.44,0,.98.34,1.88.91,2.53s1.4,1.06,2.43,1.06Z"/>
        <path class="cls-1" d="M133.19,40.12c-.36.37-.37.36-.73.72-.13.14-.34.22-.49.1-.63-.48-1.44-.73-2.23-.73-1.97,0-3.27,1.49-3.27,3.41,0,.99.26,1.9.83,2.54s1.42,1.07,2.46,1.07c.64,0,1.36-.19,2-.48.12-.06.27-.16.27-.3,0-.83-.05-.83-.05-1.66,0-.21-.15-.39-.36-.39-.6,0-.6.02-1.21.02-.21,0-.41-.18-.41-.39,0-.39,0-.39,0-.79,0-.21.2-.35.41-.35q1.46,0,2.92,0c.21,0,.39.14.39.35,0,2.15.02,2.15.02,4.3,0,.13-.12.27-.23.32-1.21.6-2.48.86-3.75.86-1.49,0-2.77-.5-3.67-1.37s-1.47-2.15-1.47-3.64.55-2.8,1.45-3.69,2.18-1.35,3.69-1.35c1.19,0,2.47.17,3.45.88.19.13.16.39,0,.55Z"/>
        <path class="cls-1" d="M139.79,38.91c1.85,0,3.56.63,3.56,2.74,0,1.26-.71,2.13-1.78,2.47-.26.08-.38.37-.24.6.97,1.62,1.02,1.59,1.99,3.21.19.31.03.54-.33.54-.59,0-.59.01-1.18.01-.12,0-.25-.08-.31-.19-1.01-1.84-.99-1.85-2-3.69-.06-.11-.23-.16-.35-.16-.33,0-.33-.02-.66-.02-.2,0-.39.17-.39.37,0,1.66.03,1.66.03,3.33,0,.2-.18.38-.39.38-.48,0-.48,0-.97,0-.2,0-.4-.18-.4-.38,0-2.22.03-2.22.03-4.43s0-2.22,0-4.43c0-.2.16-.4.37-.4,1.51.02,1.51.05,3.02.05ZM139.52,42.98c.98,0,1.98-.15,1.98-1.35,0-1.1-.96-1.31-1.86-1.31-.69,0-.69,0-1.38,0-.08,0-.14.11-.14.19,0,1.15-.04,1.15-.04,2.3,0,.08.1.17.18.17.63.02.63,0,1.26,0Z"/>
        <path class="cls-1" d="M150.23,38.99q.67,1.55,1.34,3.1c.67,1.55.65,1.56,1.32,3.11.67,1.55.65,1.56,1.32,3.11.05.12.04.16-.09.16-.81,0-.81.03-1.62.03-.06,0-.12-.04-.14-.1-.41-1-.37-1.02-.78-2.03-.02-.05-.13-.09-.18-.09-1.98,0-1.98.05-3.96.05-.06,0-.12,0-.14.05-.4,1-.41,1-.8,2-.02.05-.08.1-.13.1-.79,0-.79.02-1.58.02-.13,0-.18-.11-.13-.23q.67-1.55,1.34-3.1c.67-1.55.65-1.56,1.32-3.11s.67-1.55,1.35-3.1c.02-.05.11-.02.17-.02.64,0,.64-.11,1.28-.11.05,0,.1.1.12.15ZM148.14,44.86q1.27,0,2.55,0c.12,0,.22-.13.18-.24-.63-1.67-.62-1.67-1.25-3.34-.08-.2-.28-.2-.36,0-.64,1.67-.61,1.68-1.26,3.34-.04.11.02.23.14.23ZM151.73,36.53q-.81.82-1.62,1.65s-.05.02-.09.02c-.46,0-.46-.02-.92-.02-.12,0-.17-.07-.1-.17.57-.82.54-.84,1.11-1.67.03-.04.08-.06.13-.06.7,0,.7.05,1.4.05.14,0,.19.1.09.2Z"/>
        <path class="cls-1" d="M162.27,39.27c0,.4.07.4.07.79,0,.21-.21.41-.42.41-1.87,0-1.87-.05-3.74-.05-.21,0-.41.19-.41.4,0,.88.08.88.08,1.77,0,.21.12.39.33.39,1.74,0,1.74-.02,3.48-.02.21,0,.35.17.35.38,0,.4-.02.4-.02.79,0,.21-.13.35-.34.35-1.74,0-1.74.03-3.48.03-.21,0-.38.16-.38.37,0,1.62,0,1.62,0,3.24,0,.21-.18.4-.39.4-.48,0-.48.02-.96.02-.21,0-.33-.21-.33-.42,0-2.21-.05-2.21-.05-4.43s.05-2.21.05-4.43c0-.21.13-.41.34-.41,1.36,0,1.36,0,2.72,0s1.36.01,2.72.01c.21,0,.35.19.35.4Z"/>
        <path class="cls-1" d="M166.25,39.27c0,2.21-.04,2.21-.04,4.43s-.02,2.21-.02,4.43c0,.21-.13.39-.34.39-.48,0-.48.02-.95.02-.21,0-.39-.2-.39-.41,0-2.21-.01-2.21-.01-4.43,0-2.21.01-2.21.01-4.43,0-.21.18-.38.39-.38.48,0,.48,0,.95,0,.21,0,.4.16.4.37Z"/>
        <path class="cls-1" d="M176.15,40.74s-.01-.02-.01-.02c-.27.2-.72.26-.98.06-.45-.35-.94-.62-1.57-.62-1.97,0-3.29,1.56-3.29,3.47,0,.98.33,1.85.9,2.49s1.37,1.04,2.39,1.04c.69,0,1.28-.21,1.75-.64.26-.24.67-.27.96-.06.05.03.08,0,.13.02.46.33.5.94.06,1.3-.8.66-1.84.93-2.91.93-1.48,0-2.72-.52-3.62-1.4s-1.43-2.1-1.43-3.59.5-2.75,1.4-3.65c.88-.89,2.12-1.39,3.65-1.39.99,0,1.83.23,2.57.76.49.36.5.92.01,1.28Z"/>
        <path class="cls-1" d="M183.51,48.7c-1.48,0-2.72-.48-3.62-1.36-.89-.88-1.44-2.12-1.44-3.6s.5-2.76,1.44-3.69c.86-.86,2.1-1.4,3.71-1.4,1.52,0,2.76.53,3.64,1.41s1.37,2.13,1.37,3.63-.53,2.73-1.45,3.62-2.17,1.39-3.65,1.39ZM183.55,47.24c1.04,0,1.88-.43,2.45-1.08s.85-1.56.85-2.54c0-1.84-1.48-3.44-3.32-3.44-1.95,0-3.28,1.54-3.28,3.44,0,.98.28,1.89.85,2.54s1.41,1.08,2.44,1.08Z"/>
      </g>
      <g>
        <path class="cls-1" d="M21.39,5.27c.28.37.44.83.5,1.4,1.3-.17,2.63-.25,3.98-.25.3,0,.61,0,.93.01-1.88-.84-3.62-1.93-5.2-3.27-.05-.04-.12-.05-.18-.02-.74.43-1.47.91-2.16,1.43.19-.05.39-.08.57-.08.63,0,1.19.27,1.57.77Z"/>
        <path class="cls-2" d="M17.8,34.28s.03.03.05.05c-.58.31-1.18.6-1.78.87,1.42,1.11,2.92,2.22,4.48,3.31.81.56,1.61,1.11,2.41,1.63h0c.47.31.94.6,1.4.9.06-.35.13-.7.18-1.05.02,0,.03.02.05.03-2.5-1.62-4.78-3.55-6.79-5.73Z"/>
        <path class="cls-2" d="M40.93,30.82c-.89-3.52-2.29-6.9-4.15-10.01-.93-1.55-1.98-3.03-3.12-4.42-.85-1.03-1.72-1.95-1.81-2.04-.38-.39-.71-.72-.96-.97,1.09-.92,2.43-1.35,3.9-1.29.32-1.95.27-4.12,0-6.5h-.78c-.8-.02-1.59-.1-2.37-.26-3.29-.7-6.32-2.26-8.85-4.53l-.91-.81-1.07.58c-1.64.88-3.19,1.96-4.6,3.21-1.35,1.19-2.56,2.52-3.61,3.96l-.28.38-.04.35c-.28,1.4-.56,2.79-.84,4.19-1.58,5.03-1.47,10.24.19,14.88l-1.06.7c-1.36-1.26-2.7-2.55-3.99-3.88-.17-.17-.36-.32-.57-.42-.65-.32-1.39-.26-1.96.09-2.03,1.24-3.48,3.28-3.99,5.6-.19.89.21,1.78,1.01,2.23,2.59,1.44,5.19,2.95,7.75,4.49-.61.1-1.22.23-1.84.38l-.09.02c-.94.23-1.53,1.15-1.36,2.11l.14.77c.17.96.97,1.73,1.94,1.77.27.01.54-.03.8-.12,1.82-.66,3.56-.99,5.17-.99.62,0,1.23.05,1.8.15.89.57,1.76,1.14,2.59,1.69,1.44.95,2.91,1.95,4.4,2.98h0s.76.53.76.53c.18.88.45,1.87.86,2.93.83,2.16,2.05,4.67,4.13,5.87,1.82,1.05,4.15,1.32,6.18.81,2.2-.55,4.21-1.99,5.5-4.14,1.31-2.18,1.84-4.71,2.07-7.21.4-4.4.17-8.79-.91-13.09ZM32.48,53.84c-1.73,0-3.32-.63-4.54-1.67-.91-1.4-1.71-2.85-2.41-4.33-.27-.58-.52-1.15-.75-1.74l.68.57,8.49,7.01c-.47.1-.96.15-1.47.15ZM40.13,43.71c-.06.57-.13,1.15-.22,1.72-.65-.33-1.29-.69-1.92-1.07-2.94-1.77-5.58-4-7.85-6.57-3.04-3.45-5.4-7.5-6.89-11.87h0s0,0,0,0c-.43.28-.61.82-.45,1.31,2.17,6.43,6.19,12.24,11.48,16.5.28.22.05.66-.29.57-2.89-.83-5.63-2.03-8.17-3.53-.08.33-.18.67-.28.99.45.28.9.56,1.35.82,4.46,2.65,8.65,4.69,12.31,6.26-.53,1.77-1.74,3.25-3.33,4.12-3.15-2.48-6.6-5.07-10.25-7.66-.51-.36-1.02-.73-1.55-1.08h0c-1.69-1.19-3.41-2.37-5.17-3.53-.97-.64-1.93-1.27-2.89-1.88-2.56-.53-5.37-.18-8.21.85-.19.07-.4-.05-.43-.25l-.12-.65c-.03-.17.08-.33.25-.37.52-.11,1.58-.34,2.12-.41.72-.1,1.42-.16,2.08-.18.9-.03,1.74,0,2.5.1.12.01.17-.14.07-.2-.41-.26-.82-.51-1.22-.77-3.83-2.39-7.57-4.58-11.16-6.58-.12-.07-.18-.2-.15-.33.41-1.9,1.6-3.52,3.21-4.5.12-.07.26-.05.36.05,2.65,2.71,5.91,5.76,9.71,8.8.05.04.1.08.15.12,0,0,0,0,0,0,.63-.34,1.25-.71,1.85-1.09h0c-4.77-5.52-6.16-13.12-3.96-20.07.46-1.46.78-2.98.94-4.55.98-1.35,2.11-2.58,3.35-3.68,1.27-1.12,2.67-2.11,4.18-2.93.06-.03.13-.02.18.02,3.03,2.7,6.84,4.53,11.05,5.12.16.02.28.16.28.32v.48c-1.88-.46-3.81-.73-5.74-.83-2.1-.1-4.2.02-6.28.36h0c.05-.24.08-.47.08-.69,0-.47-.11-.88-.34-1.17-.23-.29-.55-.45-.92-.45-1.01,0-2.11,1.11-2.47,2.47-.21.79-.12,1.54.23,2,.23.29.55.45.93.45.57,0,1.17-.36,1.65-.91.05-.01.1-.02.14-.03,2.28-.45,4.61-.62,6.93-.5,1.95.09,3.91.39,5.81.87v.37c0,.18-.14.32-.32.32-2.21.05-4.3.62-6.14,1.59,7.01,5.4,12.01,13.43,13.39,22.89.06.43.12.87.16,1.3.28,2.56.28,5.09,0,7.57Z"/>
      </g>
    </g>
  </g>
</svg>